<mxfile host="Electron" agent="Mozilla/5.0 (Windows NT 10.0; Win64; x64) AppleWebKit/537.36 (KHTML, like Gecko) draw.io/27.0.9 Chrome/134.0.6998.205 Electron/35.4.0 Safari/537.36" version="27.0.9">
  <diagram name="Pagina-1" id="0jIqz7GSiduD1-fMaKH0">
    <mxGraphModel dx="2911" dy="1444" grid="1" gridSize="10" guides="1" tooltips="1" connect="1" arrows="1" fold="1" page="1" pageScale="1" pageWidth="827" pageHeight="1169" math="0" shadow="0">
      <root>
        <mxCell id="0" />
        <mxCell id="1" parent="0" />
        <mxCell id="smTQzkDHI2ayrQQzxGS5-2" value="" style="shape=image;verticalLabelPosition=bottom;labelBackgroundColor=default;verticalAlign=top;aspect=fixed;imageAspect=0;image=data:image/png,iVBORw0KGgoAAAANSUhEUgAAA+wAAAKpCAYAAAAmO6bjAAAAAXNSR0IArs4c6QAAAARnQU1BAACxjwv8YQUAAAAJcEhZcwAAFxEAABcRAcom8z8AANqPSURBVHhe7J0FlCXF9YfvGgvsLuuGuzss7g6Lu7svHgIJECBAnLgb8YSQYBEg7u7JP0LcQ4wkJFmCTf/PV69rpqf2zezurMzw9vvOuWd3XlV3V1f369e/urduxVdmRfWlbaL6wlaapmlRfXHrqH68Y1Rf3jaeGbJAfGXbOO6rs6L66rbz9qemaU9P41n4ne3Ss/Cjn9k9RpbfexERkaUCYv0n+0X1p2Oi+sNRmqYty/bHo6P6xeyofrJTellVsC8gX9wqjvvKtlH9bH+fpZrWCcaz8LeHR/WDnaP60tYKdhERGUQYReYFs7okqqfmaJq2LFt1cVT/OCWqB3dWsC8MWbD/5VifpZrWCdZ1UVSPnRfVj3aP6ktbKdhFRGQQQbAzmswP1OPna5q2LNuTF0b195MU7AtLFuwPHe2zVNM6wZ64IKq5Z0f1o90U7CIiMsgo2DVNy6ZgHxgKdk3rLFOwi4jIkEHBrmlaNgX7wFCwa1pnmYJdRESGDAp2TdOyKdgHhoJd0zrLFOwiIjJkULBrmpZNwT4wFOya1lmmYBcRkSGDgl3TtGwK9oGhYNe0zjIFu4iIDBkU7JqmZVOwDwwFu6Z1linYRURkyKBg1zQtm4J9YCjYNa2zTMEuIiJDBgW7pmnZFOwDQ8GuaZ1lCnYRERkyKNg1TcumYB8YCnZN6yxTsIuIyJBBwa5pWjYF+8BQsGtaZ5mCXUREhgwKdk3TsinYB4aCXdM6yxTsIiIyZFCwa5qWTcE+MBTsmtZZtowL9nUiRjwvYsStESNerGmapg2KvTxiuaPTU1nBrmlaNgX7wFCwa1pn2bIt2EfsHcNGVcNGLleNWG65avgoTdM0banayOUqnsMRI9+RHssKdk3TsinYB4aCXdM6y5Zxwb5HxIi5W58wvjr5HdOqY147VdM0TVtKdvybp1X7XjuxWn7C6CpixJvSY1nBrmlaNgX7wFCwa1pnmYJ9xNydL5hQXfSpmdVZd8/QNE3TlpKdf9/M6ohXTKlWmKxg1zStjSnYB4aCXdM6yxTsI+bueM6E6vz7ZlSnv3+6pmmatpTs7HtmVIe+ZHK1wiQFu6ZpbUzBPjAU7JrWWaZgV7BrmqYNhinYNU3r1xTsA0PBrmmdZQp2BbumadpgmIJd07R+TcE+MBTsmtZZpmBXsGuapg2GKdg1TevXFOwDQ8GuaZ1lCnYFu6Zp2mCYgl3TtH5NwT4wFOya1lmmYFewa5qmDYYp2DVN69cU7ANDwa5pnWUKdgW7pmnaYJiCXdO0fk3BPjAU7JrWWaZgV7BrmqYNhinYNU3r1xTsA0PBrmmdZQp2Bbumadpg2BIR7E9dEFV1Ycu6Lpy3PNsT5/fUw9iurNOp9mSjj57O516eRzvjHuD8uN7l9tqiW/k9Wtz9rGAfGENBsA/0Wcz3uqzTaZb6Zk5U1cVRVZfUxv/nLPjzeHF/17K122/zWi5o+xbG2h2Te2ZxHrP8vWh3zKFsCnYFu6Zp2mDYEhHs/zk3qn+d3bJHzonqsTZ1sP+d11MP+++589bpZGueO33xdHxJntu41n3Zf85pvehUFy2elz6tt5XfI/4u6yyKKdgHxlAQ7Hz38n3hs7hlaXCCZ9GFUf3q5Kjet29Ur9glqlfsHNV794nqFyfV4vii/gVlEvsXzfv5olrab5v7pXkt+Y0tywdquT8Q0GXZvxvHXBz3xNwl/Kxa0qZgV7BrmqYNhi1Wwc6PWddFUc3ZLKqZY1q228pR/e3Meb071PvmMVFtPKmn7ot3bH1e7rfTDE/OnftHtdrYnnM/eb3WC1HZT0PVeMnjWr1+955zaGec46aTojpl/ajev1/rRfjpco5PB+MafPXIqFau+3vNcVF99ajF+z1SsA+MwRTs+ft5/qY938W9Vo3qT6dH1VW0hXrfOTaqzSb31H0Jz+KL593v092e5Pl7ces7ctL6UU1ZPqoRw6KKaBn/n7x8VMevG9UXjmjVLQdS0z4uiervZ0b1sYOjeuTseesMxNIgwSVR/f60qD52SFSPnVdfxwtbA6OnbdBzfS7arDX4sqjP0uTpviSqbxwd1RcObw1i8Dn7RVAfvEbPMW+Y1bpX+hvE6Mvy/fiefXv2t974qP7v+MX7rFrSpmBXsGuapg2GLXbBzgvOsev2vACtvVJUfz5j3tF76n3pyKjGjOqp++ytW5+X++0k48XuyTlRnbx+z3ljo4ZH9e1jnj7nn70yL9yh93nMz67equVVyS+G2qIZ98tnD+vdx589fPHeRwr2gTHYgp174Kh1eu6L9Se0xGDpveV7jIAdv1xP3Wt4Fl8y736fzpafWR+dHdWMFed9NpWGmL/zgN6edv7l2fWhg6LaeWZUW0+J6h9nzfv7trDGbyf2zr2j2npqVHuuUv9W1AOcCPZ9Vu1p25FrL7pg5zz+cXZUt2wf1cwVo7p8i9Y1T/1UlzHYmo95waate2qggp1+fOMePfvjN+87T6PfPEzBrmDXNE0bDFsigh3PRf5R3mhiVH/pQ7B/5aiWNyPXfc62/f948/KCFyLNhx6ARyO9bOXt25Tn/S+ot4Q2LGx7OL/vHhPVpMZ5Z3vmVq2X6QXdF5bb0FebB9JG+qbZ1/y/7K/8AnbrTr3PYdxyrRddrivn2PReZXv7Xn2Hmy7KNc7Xt11ftDunsk5/1rw32rV7QWxh76+yve2Oy/30+cOjGlb37fIjovp87Rks6zb7oK/9tTMF+8AYCoL9+PV6vnd40P/Qh2D/+tFRTVuhp+71PIv7EeyL8j3Fmvdiu+0X9j5dkOcc4vbvZ0W11ZTezyM8vTvOaNkaY3uXrT8+qt+e2opKSL9vdVTR6BGt8h2ntzzR5e9bu3b19d3nM7a/Zpue7/EBa/TUz4L9pPWimjC6Zedv0l6wL+hzjrL/nR/VEWv3nCvHz4I9e9j3W611vImjo7qW8j6e2/N7tuTfi7fs2XO8caOi+u6xPYMA3devzf7bWX/HW1KmYFewa5qmDYYNSLCnRDQk56ktvxQsKcHenRioTnyD5c/KFxYsvQAxJ49t6nC7PN+we3vK6/NLfzeSDaUwwT7m9LWr32wP/y/rZ8svLcyVbL4UZiOcOUUj9NHv3f1QHzu1M7e5mPfYXxvb9Vmzffncu7fL/VF4mkrBPmpEVK/aNaqvHxvVF49o2V0HRnXEWr3Pk5fc/5zdux3d91TZ3j7mvS9oX8z3nPro6+7jFNt2zeda55f63LZex6r3kf7u5zp0n1ujval/6v5ovoRTb0EEe96W/ZTXtDx+aQr2gbE0BHufz+IlJNjb3Zv9PVd6fR/q50f3vdjcvm5T97O7/i6n8+vne5q2b/fcaPP95Hxu369nEJHvynXbRvVHnrn1d+Hnp8z7vHre9nVCOtpyeUvY5rJdZ9ZtvrT38dJzomhXs23N80mfXdI7Mu3gNXsS4bF/xPkvTm5NI8N+dUrdv7mf2zyrur/nxfHSMevPNml40G+cFVX1jNbn7I9IqAdPbB3vW8e0Bi7KAYDu69W8nv38XpSC/XsI9stbZd1tLrYtrbwHu++RfrZZXKZgV7BrmqYNhi20YOcH+o+nt0QB9uUjW6FzaZS7fklZXII9v3Q+dHpU989ueRgI0dt8clTP2iqqrx3VmufHD3XzBxXPAPumfd88ulX+x9NaiYXwrvDi+qId65fXS1ovGrywnrtxa/94FQiFJOHOPO2e0zrXrx0Z1aWbt+pvNqnVHuYBUr/di2va9sKoHj6rVT+f8zZTe16Uhw+L6q17tn9R5pi8POV+/80pUf3z7Na8QtqAx+WHJ/S8FHJOvGjhtaccu2KLVuhrPo/m/vOL9K9Piepd+0R14Oo92+23autF62cntc6BPm4n2PE6pXmfvPRlEXF5VH8/O6pdV+6phwf+Jyf0tCH/i8C/cNO6Tye3RAMhk/Rns085frMveJElCdPzt29te/ZGUf3g+J6XP8o5pwMa53TU2lHdfWBrTm/z/mn2N+3/3alR3XVAVIev1dpu22mtF/jvHle/mDb6kXb995zWvUS76AsSRWHsIx+f+/jTh0X1aJupAbSFnA8fPiiqE+v7HdthelQv2KH2SNX3YKo/H8GerxP3Ogm19l61tb/9V2v9nUKk5/Oiq2AfGEtasHMPcP92P4uPaD370rO4vjcWl2BvPosfOLiVkyI/+5jmwnOF+7l8FnPvf+XIVvs4Bt8Zfg/wUm87tbUPhCLPsyyKuccv3qxVtsfKrfuU35h52l2L4a8fFdXljWcx7cnP4rxNav8lrWPlc8Sbnp4Rl7b6LAvvn5zYOzLomHVa585cdZ6pp27Q6NNJUX3ikNY58mznOPlZRRues03rN4e2bTG59Rvz8UOievjMnu8xg7Rcu2bIO4OaXzqi9RvH7xD75fmLcMZ+eXLv+4B9Uf72vaPaZ7We58YJ67WeJfk5x364LvT3pw9tRRfkY3JenN8Pj2/VY5CA5zTHY7rWb07tHb2QhPKFrWctU6N4NnLMfVZpRVH9nN+L+hzbCfaVlovqpydG9bszWttvMaXVR/w2c35sWz6XuA70870HRXXomq3jMWjyht3rbYoBzcVtCnYFu6Zp2mDYQgn2/KP7tr16fnTHjqpfxAhrayPYGcHnpS29jGUPAHZFK9ER4i3XbQr27Jn5zGGtOX25TtNGDmsd67e16GA7fuS/d1xPyDk/6CQG2njivNvzsvXt46N6cRHWnY2XUoRg9pwQFvmvc6K6ZPOolhs+b30+Yx4+mXDbiXbO7b7ZvT08H9wvqn0bL2oIZbZvCrn8snzGRj31mANP+5rHR7TzwknyOtqRwzabxqDAnE3nfQGm/3gRX2ulebfJtsqYVrK8/OLHv6Vg/8ShbV70L28JgFyPa8OLYboPEINnt15ky+NhY0ZGdd02UT1az7nMxz27UR/xfclmvbdL8y0vafX36kWYa9N4QcyDOrnN+QX4g/u3QmLLbbAVR0Z15ZZRPdzoR/5lwINEe9RZYWRUr96lNd+03B67dLPWeXWL7zmtgQhe1su62eiPl+/c8zI7P8HOvwwOND1pTdtgQus7lq9pec+m/lCwD4glKdjztX/3Pj3Xkmv/HQaS6hDjUrAjiNJ860uLZ/FlUX3/uKim9yHY83OdXAkMMJb3EMZzBXFYPovxBE8a3XOv3XNga953uf2GE1rC8HW7tb5bZflha0b11zMbSdHqZzHzrvt6FiPcm4k8OZ9X7tJTZ4URrUSnPG85v9QXdZQCSfeetXXLyCLPtgzA8f0rj5WN7yH1+E5ftkVrjnZZJ9veq7QEMH3/rr3nLc9GXoFfntL6DTpojZ7P6WsEdR6UIKFnf/Pyt5zSusbpHOe0wtvLOtkOwbs/pzVQwKBK/pzfvXxvcR04z+fO6p37oGkrr9h6hnLMlKivEOzcFzdt18pzU27LMzQ/l/I9z7EZHNhl5rz18zYf2K9+li0h0a5gV7BrmqYNhg1IsDOKn38kGSXvT7CvM77lfWEkHQ9wtp+eEtUd+7fmx+W6WbDn43zu8NbcueaP8jorRbXqmN6fHbhaVH+uM9HzosGLydT65ZMBhfxCQcj59OKlhpcK/uWFc93xLZHVLH/Nrq2XsBzqh1e9WY6ILQUhYpkXyuZIP//ns9Mb3hm8po9f0Er6kz+jP4kOyIKru98vjuqshmBvJuvDEMsIbl4Am+IYI6HQGuN6f8Z5cL1Suy6K6qcntfo2l/PSvN6EebcjcRXRCpwL16gU7J+sBTttTsKXCIY5LW9IrseLGtmB88vYOY3zwnjxKq/xLdvVL371QE5T4NPWpkcM8UpSqN+c1luEEIJJ+9cqzokBoYfOqOep1vceL8DNAQ8Gh/BGNfeHnbFhzwAL9x6eq9xnvLBPru9fvJftBkPwfnE87t1/nxvVXqv0lOV7ku9Q8/xGD4/qk4fUIqMfwc5+GRTjvs/b0ibOo3mfrzq2jhhoE2mQ7l0F+4BYGoKdrNv5OvI96E+wc+8TxcJ3vdez+OSoPnhA72inpmBPz+Ijeg+uYulZXDz7iE7CY5yeD/UA1tR6O75/eR94t/OzNxvPqWH1fc49T/1m+Qvq0PT0XbswqisW4Fl8FXlB8jSQOVH96Ph5z2PWtKhu2r41uPfjE+u6V0dVXVmHa9ffMwQkz4Hmtk1Lgv2y1qBD83POk77Pz4JsDCiw//4E+/IjWxFCtOmQhmAnSiddG3KiFAPfE5ZrHa98diN0GYBmG45dHivb/qv3CPbtpvV8ziAE26Zn8MVR3VD8ztAGfjOaz00+y+8HpWBvPtO4l8pnK+0liixFWPFsPbX3AALG85HzzX/zHfgUv0FtptYtDlOwK9g1TdMGwwYk2Anbzj+QeDII20sviW0EO4aY4EVsHmvUwbJg5wea8ENepHIZL2Jv2qMVdvmnM1qeFcRJLk8Jc+qXguQtarwMUo8w5v+e1xo4IHSveVyWxCJkmeN+YP+WaM5lCOz8woYQar6M4OH+w+lR/fWsqM5vCEheNEvRzf85dlOI4jkm0oAXruYxCe/M4rS73y/u7VXOhqeGxEFMPeAFC29xs414n399WssTfF6xPaGZ6dwuaYWT588RtPcd3HoxZu1mvCh5n7xk0Ve5r0vB/sUj65D4OqLiwZNanuTmcfH2pERNl7WOM7LhiaKNfzmrNa+0mUmfgZtv1Z5w7LxNeu8T23PlqI5epxVVgWgg43Iu48Xzm4STX9Tyur1s596DHq9lYAbhXIvupsilbxE0DK787OTeIbEY4b2pP+ptS2F+9NpR/eKUqP57fssr3zzfZ/ASzDld0jpG/pyBJsJK86DKO/bqfY9wTZKntC/BzqDJBa0X+7wN4uq9+7bucwZ3EEXNNnKcHE3SNAX7wFgagr15j3MPfLuRxIt/m4I915nnOdzmWZwFO/cK39UdGs9MBtS453kWMz3qGVv2fubkDPNZsJdCDK813nG88YS8N8sY2OJe515EQDfv+ePW6RkEZCpW8/l/ynpR/f70VrRO8zmHRzz9PmUv75yWV7d5zKaNHRnVKRu0PPG/JsS6nkPOs5BzuXXnqHaZ0VOf3yV+e/h9YXoJfdV8xh+7Tus8ea4Qat48Xwbn8JL/6ITWoG0zCgbhy3Qnnq9ERVCvOejJszFf42aYP7+Z368HQ+njF+/QO2IhRwuwkgQDy02vPEuwPmdWVLdTZ07r2c+gci5PWeTr5z4ivDmYPnuNqH7AlKw5Ud19QO9nIDkB8MZz3KZgx1Ya1fpd51wYOGoOWDLQznXOvyXNqACOTaQRz+SvHd07Kol7lSkH7aLcFtUU7Ap2TdO0wbCFEuz5B4t5vQ8c0jJGs9PcvT7msC+MZcGexMv+PSPwvAy+Y+/a25ETzFzcCgHP2yIy05y5S+cV7Kxfm3/0EYmv3rX3cQmLTPuuvULNlxTW402f8/LbSApEaCjzlXN7CftvbpeWqGvO37u4t+eFlyjmPbItLzOsd5vLCMNmHnOeP9+XYD99w5YIpN8JJy1DHZkGkJLY1cKOesxdzuXpBYxkPxe2kv/gVSZpHBERSXRf1tqWMMSm9y3Ns6/DapuCHY/wVlOj2nu11prPu688r5cHe81uPYLynMY58cJINuTcp9xXhNHm8uRlp01tBPtx67Y81LykMSWCf5kLmctpC94zMiOne+EZLS/8G3Zr3Wt4/LMY4EUwb8eLIaHA3B8pgqP2MDW9XdvnTNEXzyvYOW7KhVCfE1mqycGQy3nxTtegnoPKgNHrdm+99KZ78op6uzOjWrex3zTY05+H/bLW9yF7NylHhHTf55e3xF4O28W7SVIpysrvvIJ9YCxJwY7x/UEk5mcx0S1MdUnP4j4E+4JaEuz1c+PDB7a+23yOh/kte9T3ZR1VQh3WBc/bMtjFPHC2LwV7mg9eR+ewj7cVAi4NvLLv+lncFKnkgEjTq5getGHP5zyL0/evTtLGgBwZ33M5g2Tsi37hWYfduO280VulEab/jn3qbWuxz3Pj5sbgJs+s/H3iX9rBYBjTxl67W8tDXD2zp203NwYLGETkGZf6+bKoTmuc06Fr1fvkeTen9VycR7DX0Ubk/cifMyDw85PrcHmOeUXrWcIcbwYEec6l7er2NKc4cF7VVfVz5cJW29sK9kuiumrLns8Z8E65MDgP7on6N5ZnN+28dcf6GdhGsDNwms6x3u4jB0U1on4m8WxiCT4+/9sZreuRt0srqtR9Qz8R/dAc3CE6j74pvzOLagp2Bbumadpg2EILdiz9uNY/+Fj2yrUT7LzoIU7xdDQNDyJzCJuenSTY2efFvUOe8RqQsbY5Yk6d0stCaCEvKKVgJ6ENLxNpu0t6z/vE20mYaPLA1FnASTCWy7NgZ9vmKP5ZG9Yhk7ykYM9seZZyOcI4eyxp96PnRrVT4yWSY2QByAsHL65ZPNFniHvamvq1jWDHi5+FWdpP7QnC457rMFc9vSzSPvr16t6DFdtOaQ06pIzGvEDXL4i8FDMQg8A7d5OW56d5nXgZbSfYF8ROXT+qf9Yv3X86rbcgfyEDJ80+vaIV0prLCZ3PIrUp2Iny+Cih5Zc1sgxf3BLizWNzH+LBwavNOSSBWh8nieb6Pm4udUROgRxS233vXRLVHY1s09zPKQzzsnkFexq4uby1Xb5/m4MmDDRw7G5BwDW4vHU8Bk5ev1vrRZl7rxlC2j241Uawp8R/l7cyYucQY0QTER6pf7kX6jbll2D6kBd69ld+3xXsA2NJC3asz2dxG8Gen8U8e+f3LG4K9uaUFbyXeNbLZzH3ar7XsPcgdC9vfR+agh3vNvtN7bu09R0dXpfxLL73wNb+0uDZha3vat4WwZ7npM9qCM0zeRbn51z9LG6GfPN947uVI5bySg8MchKpwjOBPsj1m0YUTpqHndt0Ue8s8TzTm8u6dYvhOpSeZwxebc6bZ36ez48hhlNOgTrDevNaHdhmWbd5BHv9LOIZ0Wwzvw0ksHvmlq0onSSmEbf1QEjqgwtbfUm0U96uuaxbn4K9npLAHPruttK/jWckfcC/hN/n65ij85qCnd+7lCU+59u4qJWor/mbnqK5ntES4Pka8axKuVLyQAjndnErwipv9yoGJ9s8yxbVFOwKdk3TtMGwAQn2vqydYMfbcv/BrRe6vNQX9rVjWj/ezYQ1SYTUL3PNlxMEVPOFC+NvPAnNUXU8GryU/KAQ7ITcZfHLv3iScxnH/3GdsTwLdsLIc3kS7Be3PJzN9Xs5L7wgLL+DHbp2b/FJ3fxyyYvIl47sHZpI9uC/nd3K2owXnHDvnKwMY59P1C9B7QQ7xyJjc34B46WIl78tG95bQp5pV7ONZIrO5YRzEi2RhOKclveFFzE8P+Vc/qb1J9jZjhdGXq6y0cdrj2u9WOIFz8f71clRTWt47hkY6NWna/UOEyXDOVMlOHZTsON5TtEVDY8KIah4r5riuDTmP3Kffa5ObkSbuBZ4zHMdPIfz3HsXtcIwmy/5ebCoFOxZ+LBdfvlu3tulYCebM9n8mb/ZjGoobb6C/YpWVvlcPw9W5P4lsRRRHfN8/+oX9ub3WsE+MJaGYO/L2gl2ngd4ML96dO9n8VePaX2nmx7ndN/WA2AMWuXPj6ozpjfvEe5foleaz7f0LK4HsJqCvRw8RaDneeGI42/UkUJZ6F1ZCHYGCxhQbEaprM6zuHjONb2xiPs84Ju+51nk8e+lLe8vg79Mz2GAMEelZEOUE2qf83b0J9izqH/nXi3R3PxNKG1RBXvyojPweXrfidgw2sBUoZRcsxaxAxbsl7bOt5nRnudV+YzM7U6/X31kiU/LutU5F9L9MKc1PYxpCblOEuxXtn6z84A29wsRFM1n2WFr9Q7vv4AErP0k0hyoKdgV7JqmaYNhS1ywI7hSmHM9Ct5tz2j9WM+TJf7S1stVM0ScLNu8QJSCvZmBGOtLsN/WWCqNf/E85jK2JzN3U7A3s3pnwU6itb4ybbczXiLzixzbN8MdMV5uGWzgpYV5fCTOac5tRgx+pk6ek/u1KdhJlMaLZvZ0ZbG3MG3kGCSg4tow577M1ovXjfngO8/s7fXoS7DzQkXo5f+d0PKUYCwHRHjsX/Nax3mAYU5Uvzhp3kRM/RlzydPyRIVgJ6wz7b+4X/mbQQ0iDZrLF5VG37PEG/ulfjOx0WXkE2hz75GkbVxD7KYpGwsg2NlXc53nLNgxBk+2L/IrIMRJIMXSRdwn+fMFEeyEzTf3NT+7YGMF++JkqAl2ssSnZ1IjkVqyK1rzq+fJEn9Za943Qjl/npc46yXYGTw9KaqJje9DStbZRrAzTaUp2MkanwU7z6NvI+Aagr30sPPbwEDcJm1W/ejLeK4hTtmW7y2rJiAA+f3g3s7P6PRMq39XmoMUhGgz5zvV6Uew01d4n8uknxhTTnae0fv5vDgEexqEqHNnMPWrfIaXbUh5S+oklwMV7Ey72LMRyZWS59VTDrrvv/r65QHnvgR7WqayIdj57W4mG0yC/ZmtSIFmBMf8LN2nCvbFjIJd0zRtsGyJC/aFXoe9zireDLlj2TN+zHuFJddJfJrL7CRPehvB3lzbvBTseJXSfMv+BDsJfM7qLeQY1X/v/q31vZkLTJg9LxesD4sxn5QweLYlLLI/wdiXpXl6dah2Kdh3mt5agz73CS9gCPjmnERCMN93QKt9GG1lfXm8WrQRjxLb/Pu83ufMix1J6Ai5J6kUc6ub3ou+BDu5Bsgm3ZyD2m11WGTz+qX5rY39ksztfWWf1m1lvvmnDuuZw9oU7ISLN71c6V6s77EcYo4YZskfxDsetzJTNC+gj7GO+rm9l9kjsWC+N5r37icP60m0heBIgr9NSHw7wd6ccpEEey2crmu86DOgg+fq44e2BATfoU0bImVBBPvLG9eGa8oUh/fuF9U76/5FtOR7AeHE4ApRHc3vaWq3gn1ADDXBvtDrsNffccRP/jxNESnWuuZv8lw0M6inZ26bkPj5CfZvIeD6EewIV56rTaFJFA3PueZzIz3n6mcxzw2ejzyHGejMg48ky6OPmr8r6biXtb53ef9Y+n7jke9HsFNGmH3+TeI7yZrk/N4wTYt8I4Rq520Xh2DvHmyon3P0NyH4PB9ZPq85oI3RnvQ7PWeAgv2S1sAH3u38Od7tqk3CSpLWZaHeblm3doKdfppHsF/Z+jcv38ezkYR8zWcZ58y9lK85iQabAwiLyxTsCnZN07TBsAEJ9iTA8JjXlr28i0Ww8/JxSSvrbv6cZXHSMmCXtl5gkoC9tOXNzcmQmnO6yznsiyzY57TOES9n/vxM5lOz9E/9osRxWVuchEOEmf4sLw9UzDGkvczJJxkZ+8tG8iISBjXbzVI33SHrhWBHpPLilF+SUtvntEJWcx2WgUvz/BDQdTt5sWaKAqLuJ0wFuLi1bFBTwKYkfGzDC/vlrXrNcNn+BHu5Dntfxv3wjzN7z+vnJSwlPcrtvazVTvoUUUpfpCWdiqRzvFSm5E6N+5CXUTxpCH7m03bP364z37PSQDODOlMcCNHnmIj6/DmhtSlxXx3pkDxal/ZO7rfmSlH9ss4oPSDBfklr4GTfRvj+CVnI14n/CAVuJp2br2C/vDWvPkdtcH3T1A/uWfZ5ZctTSVIn+okpGQyGtHvJVbAPjKUh2Mtncfc84sUl2C/unbyRpdOSyCqexSSiy3W4Bz/dyOmwOAU732vKm5naU1JR7uvGcw7hzHOD70KKoGLQ9eyodms8w0mIyXM69R1LhzVC5stlz5Jnuo1gT0ulMYjIdbiklUSte/9jo/o9z+/Gs5Q587m8P8F+EGuh5zb1IdjzdWZ+N4KW5xwZ51PC0HoAl1VMDmpECzBliuldHLMU7AwY0s50TfsS7PXvczOvAYPR6brkZTcvbSVB5LefdwEi33JSwAEJ9ita0Xh58AHhnpYwfXZ97Z7RGrxgAJpn3tePamWJb/csW1RTsC/jgv2O6dUZH5henfnBHuPvM+5oU3cIGO3KRtvL8iVhvY7ZpnyhrbG/xbbPhbX6up/xNLnuQ8H6u2b9lWl920IJdl4OEEws3YUYxC7erCVWqLvYBPtFrR/o5vqqrO/Ly0cWKcx1bC69RZgxS7xQttgFe+3FeF5jTjAvod3Lol3a6pPm3Lu0tNHFrReJ5gtTOfe8+SJA25ovx9ib6/n37Ks/wZ7ODQ9G48WZc+OFOL9kfeeY3sI8hXtf0gpNn9AQ5AjWJIwvbolb5gPmgRFscQj27HlhcCBvjxgg229u7ycO6Z1ojTnZ+bj9CXauIcn0mkkC8U7/hPD/nKDr0lb26Fy+2aQ6M3+91Fz25mDc5ylRXp3M7v7ZvfvxIpL71eH+AxLs9bzQcsmnNF+/XuYQ73hz6ay03z4Eexq4urSVkZ4pDXkb7mWWemKbJ+f0zrTN/ZwGHdoISwX7wFiSgj09i+e0nqH5Wcz3lrWq07N4cQh2vid1boumiCICJT2L6+8DU1+az2JygDzKvX7RvFniF1Ww52zjL208d3jWJwFXP4u/dETv6SMpZLsW4s28DhgRSXcd1BLOrCDBbwHCdXTj+7/F5HoqTj115dnb9JSRqyR9T+v9M0c/l/H7lZ6H9cAHc8iZ3pLLeT79syHYj2tcq33qRHlZtLcT7DncvDmNhmkPKZlmIxEhUUK5nOiiPOjBv9TPZWmJyQUU7PwG5N8EnjmsrJEHllk+tRkhR66U9A7AwM5ABPtlrWgy3gHy53us0lrGL7enOcCPpZU9zBK/mFm2BftZd81IL8wItVPfO7069T0tO+326dWZd06vzr63VVZu1zQEypl3Lv6+y4MI5edJXN45I7Vvfm1bWEO8lvvM55dtcQiydG55n23OcUlbuu71tT3tffV1f2+jjHtiMZznkrB0PQahzxjg6Os+KO+RpTWQ1Am20IKdH0FCz5s/jml5sj7WYR+IYE8vDHNaWW6bxyHR0NVbt5axab5cMvKe1mutX6iWiGC/qDVPesNGWDIvZCxLRqKi5txBhGfyXl/WalczbD+vsc4+Oc+m0TZeYJpJjw5ao+VdpWx+gh0POyHszYRMvAQjzGhjMyyfZGNpKbh6+bRm9ABz0QmDxYtM6H3+PFuen8p5DFSwp/Ze1JpDz5J8eR9TV4jq/E2jumLL3kn4iDYgyWB6KZyPYM/36fv37d1u9nHp5lFdP6slmpsCmORWbMNABYMszSX8MObx0x9kpG4mOmSfOQfCgAU7onxOa2Akf44AR7QTddDM55CN65nuo74Ee+0NfEUjBBejr67dtrXuek7ihDF4Qxuaoc7ZFOwDY0kLdq49wql5fZPg7WMd9oEI9hySfXW7Z/FWrWdxU5DzLGbwMgmpNuuwL6pgZwCRfRP1wm9LLmPAkedjehY3nidEZz1YJxXl/iaypjm1CeN7sOrY1qBDOVUGS7lRcpZ4Ig4aopyBvdM3iOrsjaL64QlRffHw3lMDeIbxLLug+M3CGLxNv4317xbLdOYyfpfo2ws3aUVAcexSsOdr/Mbde+93owmtcH9yWDBY3Bx8fFb93OCalmKfJJxzNmsNovIMZHCknWDP89+ba6Zzzqw5z/OKAZ3mAC9iPiXsu3iAgr0epOX/zWcWy5ZetXXr962Z8JDf77zEZ/m9WVRTsC+bgp0X5RPeOrXa6byVqrV3Wb6asOqIauzUlk3bYFS16SErVvtdN7E6666+BXkS9eznLVOT8CvLB2pn3T2jOvOuGdWJt03r/gxxecq7p1U7njOu2uzwMdVmh61YHXjjxCSyy+0X2u5oDU7w/5PeMa1bjJ1154zq6NdOqbY6bkw65hZHj6mOeNnkdN7z7GNBrPbA7vOsCa1zOHxMOh/OqxwoWFJ2zr0zqpPePrXadc5K1bp7Ll9NXH1k93Wfudly1dYnjK0Oe8nk7oGccvvBNAYTsJPfOa06/fZ5y5eUcY8d/5ap6T7Y/PAx1eZHjKkOf9nkuj3Tq8NunVRtdljr8y2PHlMd96apA79HljEbkGAvl2Zhvlh6SaxfaJph2Yyup5DiNoKdF7umaEqekPrHG+H0yLktgZTL2xnimPnNtCu1r840S8bhXIfQ+aZgby7rRvtTGGFDsDcTDh2eQxNrjxFe3+Z87tIQwsyfTC9FxVxrXmLS8l99CNoUYkpYe2PAAOOYhP2dvEHPZ3h9SsGezu+ilicHIVm2LRt98559W3XzSyhr9faVGX7bab2zEF+BuKu9/s8vPFaEQvZ1fu2MfdxzQG8RXBqZ5D+Ul3uqz7GZxA/xQCKk5j3GebG+fXNZuL6M7PMkFeSlMrWJbPFnta59WbdpvHATftm8935N5vvGi3l6QS4EezNz/WHcX/ULO0sclRmqs80c08r0nP8mS3PyNl7aikpo1v1MnSCL7xDervMaAz3tjPv94XPm/b5396WCfUAsDcHO/N18HRm0+XYh2A9vPEvWHl8v8dVGsLOKR1P0pPu2/h7TdiIzmmHQ7YxncRJY+fj1ShDNAcu01ndDsJdLL5ZZ4oleyWVMI0qCvR5A5VnaHJgtDdH7AZZkayQfo208H5srfvRn127duv/zc5Y2f+zg3sIx2537R/XURa1cHGVZtiPX6h3NxGBb+v5f0kqOWtbHmLJCnzRza/AsSHPYL4rqfxf0zqbfl5F3heuIkM392+7ZwEAIEQdzz+s9+MsAQve1raPgmuXtjL7gd5x7iG1e3xhcSPcr17vIEt9cXpDlM7lfaC/X4YY2Cf2aRsQEUSYcq/zOLA5TsC97gp2XZATHlHVGznO/NW34iKg2PniF6tT3TptHtCOqT3rb1GqTQ1asNthnheqU9ywG0YlwvmdGddSrJicxud1p45Jozt7NE982rZq0Vk+btzpubGrHoniD2RYRO/uWSdUa24+u9rxyfHXOh2amMj5nUGB443m/15UTUhvL/SyI5RD0DfdboXt/k9cemc6r7N/FbndMr879yMzqoJsmpgGZ8lo3bYUJw6sdzho3pEQ7bTnxrVOqjfZfodr6+LHpvliU674wxj12+MsnV8Ma2m7PZ0yozv3wjOqcD82odr90fK/+O+zW1oBHuR9tXltowY6o+fBBrR9GjNA0kr/hLU1zfC9qeSJzOeKdOXPlaDf1+MFnlD7Xfd3urc9zHX7AOebt+7bWF191TEvY8cKDRxuPxHfyC2oj+RrzlZkPnPeLFwfxnMovjupjh/RuP0m98ksML2aESudy1tHOZWlAovZGnbhey5NKW2gTL6sIn/RyVXswWIeW+ZUkOmJfzJnGm132RdPYlqWX8vGZY0hina7Lorpl+57P8eog2EuPaH5RJ/Eegx0I99xGEo8h9O6bXfdtY/474o45kGQxJuqB+szxJMwWLxDb5GOzX8Kt6UsEQ/4cbwwv/rmvF8RSn85pbYeHBi8Xgx4cH68XEQYsiZdeuusQUO5BQiDzceljXuTLfuVvricv7dxn7C/vG08+HpobZ9Wh8MULHn/jRWJKAsu80XdshwggUgGPdFpKrjE4wfEQ/rwY57bxgsrgBuXZW0kyuVz+LO6vPJ3kopb4Jp8BXkk8TQh1BnCYf841pS1sh3jhPmffvPTm/RF5gZcyf4/oWyI0yKNAEir2m8+D8FzOn2tZnn/TFOwDY0kLdq4x+SjytSdKhmih9CyuywnfzuXHrtsaPJ3ne1KHvfNs6HXfNr7H+VlMokIGuPgucR+lJRtXan0H2z2L8egjNPN+3753z/eB/XO/s4wkZQwK/oj2189b/mVOeN6WJRZ5pvJ5Fo2I71M2mPdZzKBYfhbn9uR+o40MXBC+TtQB322ipTgXnn3kiiCqhd85Bmqb/UW7EMpECnBMtuG4PGfTwPElrWifizdtPT9pD1EHCFuS4jHfnfwnnA/fRwa/uU48pwh7Z4CRQe78HeUZxRx12oCHO/cF3nPawXa5P3h+04ecf37OMXjIM51zTYOajfuQ686ACs8XBj7ycxGvPFMACEPnuuZjvhRPeX1v5f4ngoJnIc9E2puPyfm+Yuee8Pt8PJL3tbtf8/3CM43Pcx0GZfL9wm8U15IEc5xnfibn/uf+SNMBFuL3Z2FNwb5sCXY8fyfeNrWasm5vsT5seFSjxw6vRo4eNo+AQxiffXdPqC+exT2uGF9NWKW1j5U3X6467fZFFOx1qPP2Z46rVpw4PO1386PGdB8XQXvCbdOq8auM6G7XFkeNqc5ahPBt2ou3lkGH5VZsnfduF41PwpZyxNgBN0zo1Rd7XjG+2xu/sJYF+8YHrdi9P8Tz0hDstPnA506slh/f6tts+bqPaDgEs3EtEKuDHeJ95gfr+23V1rVfb48V0rUZ6HVfWKMPjnjF5GpUfY9gez2zR7DvcXmPYB+xXFSHv1TBvqC2UII9Wxqdb2b/LkQjP7zN8nL75o9f8pbUdUtvcfe+6jB5RAvL6xDym36Y61H77D3p3i8vE439lqJ2nva3O2ZdXr7c5hcVygh/pi28dDJokcLai/bk8P6+2tLOmm3H8v4WtF/TPup6vzutlXiJNhJumNtftiP1yUWtl03C+KlPKGbzeM1z4GWR7QZyfqVlscoxfnlK6wUVLzHXO51z8dKNLWhf5GvCv0xTyPtm3m0Ko6+PW26HZU8e50rf0ScMHqQcBPU9UG5T3nt93tNt7q98bRDYTFfgZZUkgfkc+tyuuAZt++qiliBA3CNkiG7pDsft4/yzKdgHxpIU7NkW5lnWrjzbQJ/FfJ8W5llc7nd+7W8+XxbkWcy9zbM4P8/K70K23F6+E3y3OQ/O58tH1dMGGudabpvbhFjlWcJxGQDIz758vkzh4ZnB8zQ9a5gmQFmjP5r7zdcK0Zq/owyw5P329f3vLqv7/0fHt86FtvEcSZE4fXzP2RfbEJnB84bEqczJL8+l3bXL27NvBD7tTQksj+lZzaM85vyud3m/lL8n+VnY/Uxu9H9fz+TFaQr2DhTsd7REBi/DWHPOL2J0p3PH9RJma2w3utr76gnV7OdNSh5lhHBTnKwwcXh15Csn16HqLc/zOrst312++qzR1Vl394SVNy3PiS6tFKhn3zM9hTlPXX+57v1ufcK46vz7Zra86Ckkfnq128Xjq21PHpeM9pYh8ZxreSyMdpRtO/fDM6ujXjmllwd9zysmVBd+YuXu+eXHvn5Ktf0ZrePNOmVsddSrprSdQ039eY5ZeP/7E+xn3zOz321LY1/zO142zv2Y102pxs3oGezA1tppdLX3Va3rvt+1E6oN9l0hCfhcPmr5YdWhL5rUEu3l8Yt7LFt5XbutWb++nqltxT7K7XMuBQaFcrs2PnDF6oIHZs4ziNTcd6/7oE2/9Nn+Ntd2sQj2dsdr9ENp5fn0ut79bPd0M85noQU7P6r8kGabp7xR1q68ac165Y93WS/9iNeJttr9mJf1+9rvwrS/rxe+BW1P8zjtyttZ2b7c/vLzcrvSuoVcbmMtXMt6Tcsvfvmc8vn3dezy87KvF8bYfkH6FCuPW5aXNs++G/M4y7ql5ZfEvF27F83yWP31x/zur17HK/qgr3Pu6/PuY3JtF/I8uvetYB8QS0Owz+97sLSexe3u4wXZ73zb3yjv6xjt2tNuX6Wx717ftfy9WIDt2bY8ZvPcej1762dNLuu3P4rtmoJ3fs8NrHuAYyGec6n/Gs+FBW1rttQXzd+Nfo45v+u9oMec57oV/b+kTMHeYYL9jlYiMQTaUa+ekgTmSW+v52UT/v3hGdUmB/cIxgmrjqxOfc+06vz7W4IREXLe/TPSfNymuEPkn/fRGdXJ755WHf2aKUnk5zLmPhPGfuwbpqSEdbQDQYGYYT7voS+eVB38/NpeMCmFDJ/49mktgV+3C083QmfKOj3h2hvPXrE67g1T0z7y+Z3yrmnpfDBC9ZvnTvv5jHD/Q17Yc0yOf9ybpqSBhqbQOelt06p9nz2hGrl8jxDb/vRx1fFvnprm9+e+pG0cj3/nmatPn35oRnXyO6ZVh72k55gcn/nvaZCjFqF9CXb2SYTCoS+e3N1H9DGirS8Bidf5yFdMTnX7Ol5uH/2y0UE9YfiEdnN92f+5H52ZrgMDOQxgbHPi2F7Xfd09lm8J47y/23vEJPfYIS/qua6H3zo5zcenP3p55e9oJbVL9+SrpqRz457jehzz+inVIfkcXjQ5RX/wed6OqRbUn75Rz32xzq4rVMe/aWp1HPcb1+P26dWxb5ja2verp6R7gO0YbGC/R71ycjpet7hHON/dyk/QvE+4b9i2bP+iCvY8mMPgTz5X+otBMK5vOSDCd4jvUj4f+vS0906vDqvvD9pyKnkP2gzOPN1sQIJd07RlxxTsA2NpCHZN05aeKdg7S7AjDhAv41cbWY0eO6watcKwaufzx3WHECPYEcJZYKw0c0QSp+d+tCVismcSsbDq1qOrGZssV83YaFS160UrVRd8bGa1+2UrVaPHDa9GjOwRL/yfY01Ze1R1/G1Tuz2Au12yUkpqNqyRsDEJxpGRBNgBN7SS2tE2vNfLjRlWDR/Rs9+RoyN9turWyyVPK4J5lS2XS58hnrY/Y2zLc17PQ0dw4e0vw7s5/oTVRqZzSJ7Vu2YkobfenstXI5fvnWOC/sI2OWSF1CeHPH9y8kyPGjMsherve83EbgGbvJ53z6gOuH5iNXPT5XrNccbGTB6e5lszyJDmXLcR7Gx38C0Tq9Vn9XiQsRUnDa+2O21sam9zkAFxR+6ATQ9dsZeATMebMrza5uSx1Wnvax0v1b+rlTCN65Dr0ffss4w64Loz8DB13VHpnFfbdnS17UljkyDO4pA6J751arXlsWOqMVN7h9eT82CVrZarDnruxFQvt5t7EmFOG+hbEtwd8NyJKcx93PTeXv9p64+qZt8yMZ0n13T/6ydUo8cNS/dMroMoJox/6nqjquPeODX1L/3IvokG2euq8dXGDFDU9x3bE0HAwATtYgBo8yNWTH3cPDb7XX270fXxe855UQQ714HrwbUsz3W5scPSvcAAUfOeOvld06rpG49qnc/44em+3eLIMd33F+0gcWEaWGjzDHg6mYJd07R+TcE+MBTsmtZZpmDvLMGOCDv29VOr5cb2iBG8xtlreN5HZ1azTu3tRZ2+4ahq90vGJ49f8nx+GM9ry1udvdl4LPGw73B273D6phFCfTzi/yMzql0uXKlbMPVlCH+80hd+YmYSoGV5tvErj0hZ48ngPrnhgU/Jx+owYzz8RAuU2zYN4b7Tea2+wIs5Y5O+k6+tvfPy1Xn3z6xm3zSp17x+hFoSY7XnGjHV9NC3s/X3WaE6rRaupWBHvJbCsWlk8UcY5mvLoAUDKWW9Xsfbc4UkshnkSPPwSZzXGMRA/CUvdhsPLYKRyIzkBX9fa0CieW8hdmdu1ne/YWmQ6MJx3SHrKST/tVO6588jamds2vc+Vpw4rDryVZNT1Af9XZZnY+DmmNdNTX3SPSAxLKqp643sde9x3CNfPiXdl0e/ZvJ8k+6x372eMb77Og9UsOfpGhvu3xPd0M4YhDrhNjLLtwbMOJ/x+V4eFtXE1Ub0mqrA4Bie9u5IhKexKdg1TevXFOwDQ8GuaZ1lCvYOFOyvm1qNXKFHXJBtPQt2yvGel96+JDZGRfJmb33i2Gq3S1dKYcw5VD55ZO+ZkbKMr7v78r22x5PMnHaWgkPY47Hns1w+Y+Plkkd2q2PHVOvtuUIvgbvtKWPTIMLeV49Py8s1k6JNWmNkqs9yWkmwv31aNXX9HrFF+DZtw7Y8rieEn0zyiNKtjh6T5uM3s+EjdgjNRhiRCR0vcnMOO97n9fZeIQ04ECY+++ZJScBRRj3mfHM8RBweffaXt0U0bn7kiuk88fTnzzGEPQMhHLcp2DE8p+vvvXzabv19l69GNAYIEHNcV8Q3hmc4l+HRpt+3PmFMtfauy/cSqTues1LyKHPddz5/pV7HI19BrzD3wijL0RZZ1HP9GXRYe9fe57XGDq1rS7u4XvlzoiNIckcbsmAvBybGzxxRbXb4iml7Bo2aZbNOG1ed/9GZafrEOrsv32vblVYeke6LzQ5dsXtAaXJj9YDSmP+eB2lW26YnkoEBHPbN8Tc7YsVq3LSeY+DBJ6Q+tX+Agp3yXS/qnUF+tVmj0/28wX4rpIGN/DmJD1tTIFqDMhMbfVkaCSO5Lmd2wDx2Bbumaf2agn1gKNg1rbNMwd5Zgh2vHgJmuzPGJQ80Gd6ZN3tWY11oRMi+10yoVmyI6nbGfPJZJ49NIbopjJz5y3eTrG1Gtf5ePUnnmM9+9r2tcHtEJeIMATJtw1F12PKUas6nVq4u/tzKKYkcYcd5W+ZIp5D2D7dC9gnBz2UI8pRc7N7WvGySs5WCPXsZ19yxZ5+E11/06ZWriz+7cnXpF1ZJkQOIdry6mx06ppU47s7p1XkfmZnmCPcSYleOT21Nofr3tgYo5hHstRBGnOftCEdnjfYLPz4ztZm+IjwcUY0wW3/vFbrD8UvBvvXxY1L0AoMjqW/37elbPPC0n8GDY984pRq9Uk9b8dzTjgs+3hpUIcQ/l+FFJkLi3A/NqLY9pScqAk8tId/9CfZ2lsLTnzOxl6c3icy7W4M6TJc45rWTq4mr9wzkII7T/Xb3vIKdAR3mj7PdnE/NTIMfLCeXy0mAdw4DI0QJfHhGGkjKZfQf/Uybzr5rRgr5LwU7Qnz/6yamgRLudfqJa9vdD8NaERp43YmkoB2HvXhSNW56TxsYDEm5GO5deMHOvUVESHPuPcsGcl9wrPPum9ErXwCh/NyXHKudYF9r59HVvtdOTEkXmUrQLrfB09EU7Jqm9WsK9oGhYNe0zjIFe2cJ9mS1MMw2T0bpOpybZGx4+sZOm9fb3jSEC/OEEQlpHvYHpicvey5fbZvR1Wnvn9YrY3v2znJ8RA0iBIHGUmHMJ8/b4lXPYcdp7u5GPcJsy2PHJtF2Olm/+xHsHGuDfXras/z4YdV6ey9f7XLBSinkPrWn9lA3520nL/lLewsx1tTG45/nxbcT7Ii8U941tZcYI+yZ8+yZ9zw9CW3qH/HyySnkOc1HLzzszK/OQo3t+BeRmcs5NgnKGATAM57nMXOOh710choAoW/Of2BmdcgLJnYvT8e/LeHYWxgiuA+6uX/BnhMUNu8Xzo0Iirwfltc78W1TW2HjdT36jaiF7Omn7QwW8Xkp2MmjQMI7jsX1K6corLXL8nVyvenp+hNpkMs23G/FNBCRoj7unFewj5s2IiV4QxjTblY24Hybg0x4qbknc8I32sF13eaEnkgN2ksIPe1fWMHOIAbXLX+O7fus8WmggetFgr8T3jI1CXXKGEBgPwwelIJ9zOQRKcFgGqTgfPrKxP80NAW7pmn9moJ9YCjYNa2zTMHegYK9FiDZ2pXx0n/efTOTSEEMkEyN5csmrDYizUVvCg1su9PHtjzdH2yJ0nkEe2Md9pyM7cS3T622OWlsmnNNMrEsfJu2zq4Nwf7OeQV7ngfdl2CnHA9sUzQ1jaRdeO3X3XP5eomy1r5oJ+KdzOa9BPsljXXY+xDsiGTmea/UWCZtu9PH9RKvWM4O3gp1bp8lfsq6vddhp/7ejXnbeOdZdg2xRnh//pw1yZlnTrZ9BCveXDK2j5lSt2lYVLtePD6J1u0R0Y0+2ZcEbOWyY8X9kaMIaDPXHG99UzRz3dJgUDObOuLrRZOrEcv19OeeV7baUAp2oiDox3y/YE0vei/Bfse8gp1rkyIW2gh2ws7ZNretFTo+rZq2YU+dHJ3QHJg4+0Nc70nV8JxQcVik64/4HohgJzFc/hzb8xnjU44I2stgB5ngm8J81ilj0nYMXDU/X2unVqb+7oG3Nt/pp6sp2DVN69cU7ANDwa5pnWUK9s4U7G2NRGQfbIlIxHFeMgrxgxeRfxF+iKstjxnTa44t4e1kEM9CqE/BXovvnS8YN8+cZQzR29zvogr2LOpoExnNm2HVpZE8Ds8u8+wRcQMW7A/MTNut2DjWzufNK9hLayfYmbtdCvZ9nt1bsB9cC/b1920szTaMnAPDkjjONnxU7wERBksu/OTMJJp7fX7imFbkQps20t87nT+u2uHMcWmZOfqKsHOWW2sma9vogBVame+bgj3lR5jc6/oSsdBWsJ/ayl2Q+qWOxFhzh55pDYsi2AmnT9ciC3YSub1rWjVpzZ46zJ1noKfXud+LeJzU635AdDOwMBDBvvtlvfudgYDm9WoObGCbH7Zi6pNSsG+w3/KtxIMdJNSzKdg1TevXFOwDQ8GuaZ1lCvZlR7Ajig57yeQkjEgEx5JuhEfncOwsjFuJtqan+eVZNDDnmDDjLJT6EuyILJKNNRPL4eVmjjnh8CzltuYOPdsuDsGeIgY+2JrrfNRrJqd594SrL7/SsHmWlMPwOHMeKSR+IIL9/pnVka+ckuaX5+26PexZVKXBkVYoebY0sNBmHfZ5BHvDM9sU7MwZb36Od565+cnWHpn2tcoWy6UlzlLm/0vHd3uHm/kKVt1quZbHtpgHzf3B1IcsFkmoR6g/15WM8ats0SOo19urJah7Cfa7Z6Qkcc2kecy3bivY62SDbLe4BfumB6/Y61rQfhLmTW942Dc6cIV5BDv7nP18POw998qBN04csGBvZrjnPhy/6oiUwT5fM/I7pOu12XLp/zvXKwKUgn2Tg1dMc+Kbbe0UU7BrmtavKdgHhoJd0zrLFOydJ9gRMggJXv6xJAZvb31G4rAsBJK4ObTlacyh7kn81suB4dnL9RBbx76uD8G+bY9gR+wiMHIZ2eQPu3VSKiPRFkKGBGy5vF/BftyCCXZEHf8SZsx8cNpy6vumpfWt97tuQsoovvy4hmDdZrnkYUcsDESwI5441uRG9vmNDlqhlxeUdh/7hqlJsO777AlpEINwaPp2YQV7Donf8Zye0PYJq4xIa5Cf9t7pKfKBffM3AzBkwWftb9aab4W0T6/WaIhhIg04T65FEt31FIbz7p9RbXvy2F7Z5tfbq+WtZhBn/UaeAAQmx+B88n1Hv+FVzoMkHOeg505KgnexCvb95yPYD+kt2PmX82smJlx5s57s+7kO9zzL/uU65BcgDwFTRwYi2Pe/oee7Ru4A7sXk7X/HtDQwQl6Dg26Z1FpC7z3T0jz+VF7MYed8cl91minYNU3r1xTsA0PBrmmdZQr2zhLsiC8EwW6XjK92Onelasezx6UM3AhyMp+TQb65hFYSb5eulAQjAgnhlEUjHupcD2FJuHz2qpYe9rPvaXm4SSS2/l49gpxM82T6xsuahRsJy3I5Ce16CfYNe4QZGe5Jtsbc6L4EO4IJwYawpIxka3jYOR6G0MXW2qlHrKWl0up52qVg3/OKCdVFKUv8jD4Fe4pAuKe3gGWt+GNePyWJOxK9nfuhmdUmsxtJ2lYdmeb0IxwHItgRgAjBvCY8S/DtdvFKaQ17QvQ5R7z8JKMjugBv/MnvnNoS4/e01mJvhmCzfB79R5upQwZ6lhtr1iFKgnnxtLm1RFlPMrwRI4dVu8xZqTWVor7uXD+WUMt1aAfeYsLvF1mwb9FbsKeEcvWScfMV7HW/0j/Nc2MwhcEXzo22sBwhyehyHebUM3efe2xhBTv3wdGvndJrecOtTxibPudazvnkyimJ4PIThqf8Dty/R7ySAbF5k84p2DVNW2ZNwT4wFOya1lmmYO8swY6AOfb1U6vRjfXMmY+cE2zhBd11Tu91uZlbyxJcWxw9ptry6NYa4iOL+bWEs7eSzrXCuptLiI2bMSIlMsN7T0bupocdkbv5kWOqQ144OYmccr3t1lJXrWXj8DISzp3LZm46Knmm035Zrq4PwY63cur6PQIHkUsZQpdwcpLpNee2sxxbDokng3szyR6h0rNvmZSWPmsJ9vbrsNMXB9wwoSdBWb3eN/1AdnDWVGeOeS5j8IH9DdTDTnJAPNpEB+QyzolrS/Z91lpH/OUyBG72sCdBfM+MalZjebfmPpgakbOVN22r4xtTDu6ckQRtcx44ApZ+Pvj5k6r9rps4z9rzeNv7Wod9YQQ75att23PeRDawZBv3BeI2RTvMR7Cz/+Pe0DtR4PIrDU/JFA95/uTU53jdcxkecSIjuGYMWCysYE/b3TsjfZ96yoalv+mvvZ81oZq4ek+bx04fXh33plbWfQW7gl3TtNoU7ANDwa5pnWUK9g4U7K+b2ktcbHdaj2A/44Mz0nxesmTn8vkZQiot64aorEOHN26I8mzDR0XKfD37eXhz591PtpGje/5PaPdJLK+FZ//eGdXau/UMBGRbaeUR1el3TEse/snr9Ah21tFG1LEdYfcs51VuWxqecJbq4nhZhLZb1g7v6ln3TE8hy832ItQQGXnqQHNeeV/GYAJLeKXtPji92uiA+WSJv7pHsONJpw30OWWIwabXtp2xJjwJ4+ibfF+kKQ8fmF5tf/rYXgMJfdnmh6+Y5q3nduW2HXjTxLbJBEtj4COJ7Q/0CPZmxAYJAkvB3hT8a+xYz5GvkwM217zPNnKFSAMuJE5sil8iG0rBnsPiWZMdoV7uq7RtThqTzj21rR7Yad7Te17ZI9ibyeUQ+kRtcHy2O/aNU6vJa/e0rZ2xzV5XtQY3ckj8+FV6n4+CXdO0ZdIU7ANDwa5pnWUK9s4T7Me9YWo1buaI5J3FCI1PieVy1uw7p6dQ3y2PHZMSp+W1vUsRgTDc/IgxrVD4uxrHILnYSyZVExveVowwY5ZOQ1xsf+bYeYQR4erMmd/zGStVY6cOT55tjn/kq6Z0C/Z9nzVhnkzvLDWHKCO8mgRd+by2O63HA8z5seY3Ydg5bLxsGx7ww17cElPpXJJQnJ6mDTQzm2N4qCnHe40Appw5zXhd8/aE+vMvoc7tRCzbML8fsdozYDK92uywVgZ+jDaxNFtTsO937YTUV5SzXzz26frVc+MJ00cEIuabx+M6EtLNgMk8ghVhXM/1p5/IpE5kxOixrXPjeFyLVbcZXe177cQ0x78p1rv76276ZGLqn+agUDb6igzw6T6r17xvDSJNSYMl+byJesiJ1LJgZ3oE9wTlhIjzWRbMh754UjVueu8+ph5J7shkP2OjUd373uLIMW3PP0+DIGpjxsat+mX7yblAroB0X9VJ+fg/c9lJ3JePgUeeteC5LntdOb77c6YkHPGynnuMEHcy5xMh0O54ePyZasB9mAaBasFO5EXzfEw6p2naMmkK9oGhYNe0zjIFe2cJdkQJ4paw7gNvmFjtf/3E5PXG09mshzDgZZnM78zl3fq4MdVmh7ds6+PHpDBfln1LYcmlcEsiZnpai3z708elbTY/akzaz0lvn9qaD3/XjDT/maXFWvscmxKicVzskBdMTm1DPDEHOa8xTRmin1BrtmNQgTBzwuYJ8aaMTPMHXN9KrnZ6Xpu6fvlH1FM/b4/RBhJ+0S/dYr22HDJOXxGunOoTTn/LpFR+0jumVrNvbh3voOdOTB753NZmPyLoGBjJx9z25HEpwzgDI92ebgT7+6enxHjsj/PgfKhDG3J7OAbb0qaDbp6U+rT7mIjOe1rL7xGez7XieExnoP8JD28rVvP51ttzfUh6Rrg97WAQgPuEwRxEbfMce1m9PW3m2nGe6fofOaba5cKV0rxtytPc88Y29P3Bt9TX7oaJae48Xv9cjhE9wD1B3yB6m+dAe9k30SLpfI8aU+15xfgkbk+/fVp16Asnpe3oM+7L+bb/3dPSsfJ9Qvt3u3h8ShRYnn/KC/GuaamP2D/XhoiJVtTCjJTcMB+bOjl3QN6eQRb6i/PO34fND2/1F9+/dLx8/d8/PU19YKCIfdJGzqe7rzrMFOyapvVrCvaBoWDXtM4yBXuHCXasFiUIgRxmO0+duh5ZtvH+5mRYGP8nkRgiqS/hh1GONz1vx356CUsyj9f75V/alIRJXZbax2eFuGpuR6K67F1Ox8zbpfOa95pxrtSf53wQRX30QxKx985Ix+puay2yaVt3X7Zpa7LaQ0x+gO5jfnTmPMKvu4310nlYM2y9uz0csy7v65jpPIvrxt99XuvyGHkJv8a55RDwsm47y/3SvP7Ms+/znml3T97eu06Oskj9Unvny/J57rf6WL3uizYDTKVxL1C32X/dKyq0q1+0v5egr/fVfb3anH++pr36i+9YH8db2PN5upqCXdO0fk3BPjAU7JrWWaZg70DBrmma9jQwBbumaf2agn1gKNg1rbNMwa5g1zRNGwxTsGua1q8p2AeGgl3TOssU7Ap2TdO0wTAFu6Zp/ZqCfWAo2DWts0zBrmDXNE0bDFOwa5rWrynYB4aCXdM6yxTsCnZN07TBMAW7pmn9moJ9YCjYNa2zTMGuYNc0TRsMU7BrmtavKdgHhoJd0zrLFOwKdk3TtMEwBbumaf2agn1gKNg1rbNMwa5g1zRNGwxTsGua1q8p2AeGgl3TOssU7Ap2TdO0wTAFu6Zp/ZqCfWAo2DWts0zBrmDXNE0bDFOwa5rWrynYB4aCXdM6yxTsCnZN07TBsD4F+x+PjqrrotYPlKZpy64hNh8+WcG+sGTB/udjfJZqWicYg5ePnqNgV7BrmqYtXWsr2H+8Y1S/2D2q3+6jaZoW1a/2jOrPu0X1xW3jhvI1Ttrz5W3i1J/sGNVv9py3PzVNe3rab/aO6je7RvWlbeOLCnZN0zRtaVhbwf7VbePWL24dt35+i7j181tpQ9m+tFW8+Hvbxk38W5Zp2mKxLeLWL24Vt/5oh7j1K9vEHuVrnLTni7NiS56lX/VZqmmdYfX3+Dvbxa1f3jrOrm6I4eX3vnNRsGuapg2WtRXs8rRifER8MCJmlAUiIiIii46CXdM0bbBMwf70Z5uIqCJit7JAREREZNFRsGuapg2WKdif/mxZC/adywIRERGRRUfBrmmaNlimYH/6s1Ut2HcpC0REZKkwIiIuj4gdygKRzkDBrmmaNlimYH/6s1lE/DMiti8LRERkqbBcPXB6U1kg0hko2DVN0wbLFOxPf1hWZnL9r4iILH0Q7HMj4pqyQKQzULBrmqYNlinYRUREFo3sYb+hLBDpDBTsmqZpg2UKdhERkUVjVET8OCLmlAUinYGCXdM0bbBMwS4iIrJoDIuIdSJiUlkg0hko2DVN0wbLFOxPf8ZHxOG+KIqIiMiSQcGuaZo2WKZgf/qzdT13cteyQERERGTRUbBrmqYNlinYn/5sWQv2ncsCERERkUWnIdjvn1Gdfsd0TdM0bSnZ2ffOqA69VcH+dGarWrDvUhaIiMhSYUREXBkRO5UFIp1BS7DvfMGE6qJPzazOvnuGpmmatpTs/PtnVke8Ykq1wmQF+9OVzev1f3coC0REZKmQl3W7pSwQ6QxG7BUx8qmp669Qrb/3mGqd3TRN07SlZevtMaZabdsVqxGjl6siRr6tfELL0GdsROxXJ58TEZGlD4KdgdNrygKRzmDkjjFs5M8jRv4xYsTvNe1paL+NGPGziBG/aVOmaU8DG4n9OWLEi8sntIiIiPSPgl06nRUjlls/YrmNIpbbQNOefjZqy4gRR0WM3HbeMk17utioTSJiRvmAFhERkf7JIfE3lQUiIjIk2CgiHo6I3coCEREREelshkfEIRGxflkgIiJDgu3qgdWDywIRkSUNc9ePjojJZYGIiIiIiCjYRWTw2KZ+ABniIyIiIiIyLwp2ERk0tqwfQDuXBSIiIiIiElMj4oKIWL0sEBFZ0ijYRUQGH5bYJPmciIiIiEg329aCfY+yQERElgqjIuLBiLioLBARERGRZZtpEfHMiFilLBARkaVCXtbt+rJARERERERERAYPBPujEXFNWSAiIkOCFSNiq4gYVxaIiIiISGejh11EZGgzq35OH1QWiIiIiEhnMyIibomIvcoCEREZErism4iIiIiIiMgQJHvYZ5cFIiJLmnUj4nMRsVlZICIiIiIisWMt2I8oC0REljTb1A+g3coCERERERGJNSPiTTq4RGQw2LIW7DuXBSIislQYFhETI2L5skBERERElm221sMuIjKokCX+wYiYUxaIiIiIyLLNWhHxoYjYsCwQEZGlAoL9qYh4TlkgIiIiIss2hGKOqv8VEZGlD4J9bkRcUxaIiIiIiIiIyOCBYGdq0nPLAhERGRKQdO4tEbF5WSAiIiIinc3IiLg/Ik4qC0REZEjgsm4iIiIiIiIiQ5BZtWCfXRaIiCxp1o2IL0fEpmWBiIiIiIjE9rVgP7QsEBFZ0uRl3XYtC0REZMAwL11ERDqDTSLi+74vi8hgsGUt2HcuC0QWhKqq1u7q6jqoq6vrgCFoB1ZVxT0usjRZMSLujoi76kFRERF5ekOukekOxorIYKCHXRaJrq6uZ1dDmK6urg+WbRZZwkyNiDdGxBP18/XN9fzHvhgREVfUSY1ERERERLrZOCJ+ERHblAUiC0JVVc8qRfIQ446yzSJLiW0j4u21aH88It7Qh8d9dF3nlrJARERERJZthtUmMiC6urquLBVyyf/+97/qzW9+c/WpT32qLFridHV1va9ss8hSZquIeFVEPBoR/4uI1xfTkPCwz42IaxqfiYiIiIh0s3zt5dG0hbFRc+fOvbYUySUPP/ww3sPq6KOPLouWOE8++eQH6jlnZds1bWnYqMZzFpF+W+1N/2cdKr9BXYaQv75RV0REhg5rRsQ7ImKzskBEZGlwckR8KSI+rWkLaR970Yte9ItSJJf84x//qCZOnFidccYZZdES54EHHvhzRHyqTds1bWka9+C9EXFfRPyxFu1ZuL+z9rBfWD6cRURkSOCybiIyqCDY/xIRv9e0hbTfXX/99f/M4viJJ55I3vS5c+f2Es0I9gkTJlTnnHNO+vvRRx9Nn/XHI488Uv3zn927TuT9P/nkk70+53jlMR9//PHqX//6V/XBD34QIfS7Nm3XtKVp3IMPRsTPIuKxhmAnMd2dEbFXREwqH84iIjIkIHEoz+zZZYGIyJJmfEQcHxFrR8RYTVtYe+SRR56DQP7IRz5S7bXXXtXIkSOrjTfeuHrjG99Y/fvf/07iGXE+efLk6oQTTqg+8IEPVJtttlm1wgorVBdccEH14IMP9hLav/nNb6rrr7++mj59ejVmzJjq7LPPrr773e+msj//+c/VzjvvXN10003d9RHmhxxySHXkkUcmQZ8599xzq+OOO676y1/+ghiap92atpSMJd5YDgjw0DB/nZc+5rOzggGJ6UREZGizXf3sPqQsEBFZ0pAdngeQywnJgCDp3Mc//vFqxRVXrE4++eQk1BHi3Ff8jTccb/kaa6xRjR07ttpqq62q5z3veUmUI8j5+z//+U8S2T/60Y+qDTfcMIXPX3fdddWtt96axD1/P/DAA6nOwQcfXK2++uopkR0g5pdffvk0UPCNb3wjfcb+GCC4+uqrTTonQ4F1IuJFdSTTkxHxnojYvawkIiJDFt6X/xsRB5QFIiJLmi1rwd7MWCyywHR1dV19+OGHV5tuumm3dxsQ2ySZw8uOgF555ZWrVVZZJYnyzKte9aoktL/85S+nvxH6o0aNqr72ta9113nooYeqTTbZpNpiiy2SN/3FL35xqvODH/wgld9xxx0p3H7YsGHVW97ylvTZpz/96Wrq1KnV5z//eQT7+8s2iywlNo+Il9Vh709FxO0RsVNEDC8riojIkIYEoivXSZpFRJYqLDeEYN+lLBBZEBDsr371q6vhw4enEPSXvOQl1c9+9rNuwQ3MO8dLfuqpp/b6/HOf+1w1adIk5pknj/mqq65anX766b3qwG233ZY89t/+9rerX//619XMmTOr17/+9amMkHk8+bvvvnt15ZWtFeYIh19ttdXSPhXsMggwF/0Fddg79y5RHnuUlRqwrNtlEbFDWSAiIiIiyzZb1J4fvD4iCw2CvaurK4ll5p0jUJZbbrlqp512SkKcMpLHIdjPPPPMXkL8s5/9bDVt2rTqnnvuSfPc8ZzfcMMNveoA8+PZ7/3335/+Joz+tNNOSwMBiHe87M9//vOrLbfcsvr73/9e7bbbbtUxxxyT6irYZRAYExH3sIpCROxZFraBZQd5Drusm4iIiIj0gqRzR5qdWAbKk08+eXUW1iSFQzy/8IUvTHPREe7f+973Ulb4dsu6feYzn0mh63fffXfK8j5lypTq4osv7lUHbr/99iTY8cjD5ZdfnsT5nXfemULx//jHP6Y6JLJ717velea4Z3GvYJdBgoRzCwqCnXXYry0LREREREREBswjjzxyNSHpZbj7fffdl0T2XXfdVT322GP9CnY88cBc+BkzZlR/+tOfetU74IAD0hx4hDl8/etfT551stKzDZBtnkGCbbbZJu0z11Wwy9MABbuIyNCGFT/I+7RSWSAiIjKkISSe5HGI8zlz5lRkjEek77HHHilE/re//W3yno8ePbo66aSTegnxT37ykylT/Hve8570NyHyzGknnB6POaKfpeDY9ytf+cru7QixJxEdn1911VXdnx922GHpM+bB57XaFezyNCCHxD+nLBARkSFBXtbt4LJARERkSINgRxjfeOONKRR92223rTbffPNqxx13TAIcWNZt6623TsusNfnqV79abbfddmmOeuYLX/hC2pa13NkGrznZ37MAB+bFP/vZz67WWWed7qXc4JZbbkmfffjDH27WVbDLUGdYvWTQzLJARESGBLMU7CIyWDCH/SjnsMtAyYIdCH3/17/+lZZya4LAJmM7y7I1eeqpp9I2TTGeYSk4hH67MmDbvBZ7hrrMl2+iYBcREZFFRA+7iAwaeR12s8TLgGgK9qGIgl1EREQWkSzYDykLRESWNK7DLouEgl1EREQ6nBkR8eyIWLssEBFZ0mQP+85lgciCwPT1UiQPJbq6uj5atllkiMEc9ql1FmIRERERkW5IdIRg370sEFkQurq6Du3q6rp9CNulZZtFhhhkif9zRFxZFoiIiIjIss2EiDguIqaUBSIislRAsD/psm4iIiIiIiIiQwsE+6MRcW1ZICIiQwKmLJH3aVxZICIiIiKdDYKdqUk3lAUiIjIkQKw/HBH7lgUiIiIi0tmMjIhXR8SBZYGIiAwJXNZNREREREREZAgyqxbss8sCEZElzUYR8ZOI2LosEBERERGR2LEW7EeUBSIiSxqEOg+g3coCERERERGJleuVPNYrC0REljRb1oJ957JARESWCsPqpTXJQiwiIiIi0k32sO9aFoiIyFJhVER8LSLOLgtEREREZNlm3Yj4QkRsWhaIiMhSIS/rdn1ZICIiIiIiIiKDB4J9bkRcUxaIiIiIiIiIyOCRPew3lwUiIjIkWD8iHqjXYxcRERGRZYiREfGWiDikLBARkSHBDvXA6uFlgYjIkobsxLws8q+IiIiIiPRmVi3YZ5cFIiJLmrUi4iMRsVFZICIiIiIiKRQewW4klIgsdVzWTURERESkbzaPiD9ExJ5lgYjIkmbLWrDvXBaIiIiIiEiaPjo1IkaVBSIiS5ptasG+W1kgIiJLhRER8fKI2L8sEBEREZFlm/Ui4kt1qI+IiCx98rJut5QFIiIiIiIiIjJ4INjnRsQ1ZYGIiIiIiIiIDB4I9scj4rqyQEREhgSrRcQrXVVJREREZNkDwf6PiLi6LBARkSHB9vXUpUPLAhERERHpbIZFxGYRMa0sEBGRIcGsWrDPLgtERJY0LFFxaUSsXBaIiIiIiIgedhEZPLatH0B7lAUiIiIiIhJbRMTvImLvskBEZEmzZS3Ydy4LREREREQkhkfEihExoiwQEVnSKNhFRAYXXgTPioitygIRERERWbbZuhbsu5UFIiKyVCBL/P8i4tqyQERERESWbSZExLERMbksEBGRpQKC/TEFu4iIiIiIiMjQAsH+eERcVxaIiMiQYHxEHOTymyIiIiLLHgj2RyLiWWWBiIgMCXaop5AeVhaIiIiISGczLCLWd2qSiMiQZVYt2GeXBSIiS5pxEbF/PZddRERERER6o2AXkUFj84iYGxE7lgUiIiIiIpLekxHsh5cFIiJLGtb95QG0S1kgIiIiIiIxMyJuiIh1ywIRkSXNlrVg37ksEBGRpQJz2DeMiCllgYiIiIgs22xdC/ZdywIREVkqkCX+UddhFxEREZES1pU8NCImlQUiIrJUQLA/pmAXERERERERGVog2En+eU1ZICIiQ4LlI2KjiBhTFoiIiIhIZ4NgZ2rSzWWBiIgMCbaIiN9GxF5lgYiIiIh0NiMj4rZ6epKIiAw9tq8HVn1Oi8hSZ0Q9j50XRhERERER6c2sWrDPLgtERJY0m0bE3+qRQxERERER6c2OtWA/vCwQEVnSbOWybiIiIiIifTIjIp4ZEWuXBSIiS5ota8G+c1kgIiJLhWH11KTRZYGIiIiILNtsUwv23coCERFZKoyKiE9GxCllgYiIiIgs26wXEV+OiM3LAhERWSrkZd1uLAtEREREREREZPBAsM+NiGvKAhEREREREREZPLKH/eayQEREhgSsqvR9p5CKiIiILHuMjIjXRcRBZYGIiAwJdqgHVg8rC0RERERERERk8JhVC/bZZYGIiIiIiIiIDB7b14L90LJARERERERERAaPLSLitxGxd1kgIiIiIiIiIoPH8IgYXf8rIiIiIssQJJ37QEQcUxaIiIiIiIiIyOCRl3W7qSwQERERERERkcEDwT43Iq4pC0RERERERERk8ECwPx4R15UFIiIyJFg5Im6MiPXKAhERERHpbBDs/4qIq8sCEREZEuxQT106rCwQERERkc5mWESsHhHjywIRERkSzKoF++yyQEREREREREQGj+1rwX5oWSAiIiIiIiIig8fmEfGriNizLBARERERERGRwYNcI0xdWr4sEBEREZHOZnhEHB0RG5cFIiIiIiIiIjJ44Ll5wmXdRERERERERIYWCPb/RcS1ZYGIiIiIiIiIDB7Zw/6cskBERIYEUyPivHoeu4iIiIgsQyDY/xYRzywLRERkSLBjvazbEWWBiIiIiHQ2w+o1flcpC0REZEgwqxbss8sCERERERERERk8FOwiIiIiIiIiQxBD4kVERERERESGIFMi4oyIWK0sEBEREZHOZnhE7BkRa5YFIiIiIiIiIjJ4kCWeUMsbywIRERERERERGTwQ7I9GxDVlgYiIiIiIiIgMHgj2uQp2EZEhy6iImBkRo8sCEREREelsckj8LWWBiIgMCTaPiF/V+UZEREREZBliRETcFBF7lAUiIjIk2L4eWD20LBARERERERGRwWNWLdhnlwUiIiIiIiIiMnjoYRcREREREREZgqxS5xlZvywQERERkc5neEQMKz8UERERERERkcGD5YI+FhEnlwUiIiIiIiIiMnjkZd2eWxaIiIiIiIiIyOCBYJ8bEdeUBSIiMiRg2tKYehlOEREREVmGyB72G8sCEREZEmwZEX+KiH3KAhERERHpbEZGxNsj4rCyQEREhgR5WbdDygIRERER6XzMEi8iMnSZVQv22WWBiIiIiIiIiAweO9SC3UgoERERERERkSHEJhHxrYjYpSwQERERERERERERERGRpcyoiPhcRJxeFoiIiIiIiIjI4OGybiIiIiIiIiJDEAT73Ii4piwQERERERERkcEDwf5URFxfFoiIyJBgekRcERFrlQUiIiIi0tkwh/03EXFZWSAiIkOCHeupS4eXBSIiIiLS+YyrPe3LDF1dXZt2dXWdoGnakrcnnnhi9h133DGi/B7KAjOrFuyzywIRERERkY6jqqoXViKyVHjqqad+/+Uvf3mF8nsovRgfEdtExMiyICK2rwX7oWWBiIiIiEjH0dXVdUMpKkRkyfDUU0/98Fe/+tXy5fdQenFGLco/HRH7R8SwRtkWEfH7iNir8ZmIiIiISGeyOAX7Qw89VH3/+9+vnnjiibJowDz55JPVgw8+WP3yl78si5Y6//3vf6sf/ehH1Ve+8pXqe9/7XvX3v/+9rLJY+e1vf5uO19XVVRYtEGz3i1/8ovrJT36CUCyLFwt/+9vf2rbxN7/5TfX1r3+9+sY3vlH97ne/61VWUm67oOTtHnnkkepb3/rWgK5H3sfDDz9cffe7363+9a9/lVUWiZ/+9KfVX//61+6/FewLxHoRcUtEPFwL908WAn3DiBjb+FtERERElgGGR8R+EbF2WdDJLE7B/rKXvaxabbXVqr/85S9l0YD597//Xc2aNas6+OCDy6Klyic+8YlqvfXWq0aOHFlNnTq1Wn755avx48dXL3/5y6vHH3+8u97cuXOrD3zgA9VHP/rRXtvPj//9739pmy984Qvdn5199tnVOuusk8oWBI79vve9r/rSl76U/maw46CDDqo23XTTVLa4YRDgqKOOql760pd2f8agzdFHH12NGDGimjhxYjL67Ljjjqv+9Kc/9doWQf+GN7yheuyxx7o/XxC+/e1vV+9+97uTUIePf/zjiLrqHe94R1m1T+ij97znPd3Hfte73lUNHz68+vCHP1xWXSRe//rXV0ceeWQa7AEF+0IxMyJeHhF/q4X7/RGxW1lJRERERJYNSDbHS+GzyoJOpqur69mlyBgot9xyS7XCCisk0ba4QAy/973vre65556yaKnxqU99KonzXXbZpXr1q19d3XvvvdWb3/zmJMS4Z174wp40AD/4wQ+qsWPHVrfeemuvfcyPn/3sZ+kYb3rTm7o/Q4jedtttSXgvCP/3f/+X2vP2t789/Y33+O67767e+c53Ltaoh8wb3/jGauONN67++Mc/pr/xcNNHDGhcd911aeDijjvuqK666qpqzJgx1c4775w88vCf//yn2m677ap99tmn2Ov82X333asdd9yx+5zw5tPfP/zhD8uqfUK7aWuGKAEGXxZ3JAd9woBJvke6urp+UH4HZb5MjoirI+InEfG/iLjbOewiIiIiyx4I9kci4g310kH92Q4RsVNE7LGEbM967uaSsIPql11s7y984QvvLUXGQHnBC16QROef//znsuhpzXnnnZcGIrIwzSCId9ttt2rUqFEp9BwQzePGjate+9rX9qo7P9ievsPTO1AQnQj222+/vSxa7CC4N9988+r5z39+92cPPPBAOj5e85LXve51qQyPMxA1sO222w4ocgKhvccee5QfLxTrr79+tffee5cfLxFe8pKXVCuvvHIarHj00Ud/vdpqq+0bEbu0+d4PlvEsK59xQ8F4zmJbRsRmEXFURHyqHlh9rBbu9CVLcoqIiIhIh4Ng/0P9MrjM2I033phExf3331+dc8451emnn16deeaZSWCVnt2vfe1r1QUXXNBdh1DoZrh2O8GOx/nSSy9N25xxxhnVTTfd1D1PmDBttsllGGHgHIN/v/rVr6Z6L37xi+cRgYQ/n3XWWWlb/sWb2wTB/IpXvCKFPnNep512Wtpv3mcG4Yl3Nu+LNuBpbZ4XZQj2dnOxP/3pT1fXXntt8vL++te/ro444ogk4Anjf+UrX9ld72Mf+1gS/hwDmzNnTpozDYSKn3LKKdVyyy2XvNAIPCIL8E5zfbIn+Q9/+EP1rGc9K7WRfVx22WVpfjr8/Oc/r4499th0TRG0eL+5fvz7vOc9r1fYOW0599xz0z7o5zvvvLO7DMgZ8IxnPKP7OPQfnvomTH+YMGFC9eMf/7j7M+pw/GaUQIbBDtpO1AA85znPqSZPnlytuuqqqS9y39KPzXOkfYT5A2H0RDhMmzatmjFjRjoH6uMVP//883tdW86bezTvI7f/0UcfrW6++eZqpZVWqmbOnFldeOGFKSKEMPuLL7443a8ZcgjQD/mace8yRSPDdeEa53sH417NofoZ9s/UBu5JriHTKcrvobbA9kSbz14aESuWD3QRERER6SwQ7GQf/mBEnBwR58zHzoqIU5egHb8E7ISIOCYijqxt/2984xu3I8QnTZqUhB6i5JBDDklzkBHaeX423lPqMI8bQXXCCSckEYtIzOI2C/Y8h/2LX/xi8iwyr/3KK6+sTj311CRWDjzwwOof//hH2vdb3/rWFD59/fXXJ3GKrbjiiulFHAGGSNtkk026vaF4tW+44YZUvtNOO1XXXHNN+pf9IkzzIMMBBxyQ6hCOfPzxx6dzYb+0J4tcxBdzsNkWwfzc5z43eczZjvZmGAwYNmxYOndCm7/zne+0jSJAjCEcR48enUK9mWcNhKQTEo6I5zwRo8zrJiybbf75z38mYch2eJwZjOC8GWRAmPJ/BhbwKk+ZMiWdC4Ynn3LOB9GP4KTtXL8PfvCDSVDSb2uttVYSqkAoP23ZbLPNuvuOgQI+B8LKqY+YZkDgmc98ZrX66qunOh/5yEe6z5V20rfNhHG///3vk9ed80DkM5WAQYx2c9Rf9apXVdOnT6/WXnvt5KUndJxBh6233joNBHB+z372s1Of0/dMi+BY/LvKKqukNnG9uA6f/OQn03kzfQC4h2kDc+m5nwi9Zx9ve9vbUp8woMC9vMYaa6R7hv4nsoF9ZGFPpAT3HefNQA/3LuXsk4Em7l3OkcEZPuOY++67b6pz0UUXzTPYtddee6V78u9///vvV1111bMj4pQ23/nBMtpTPt+GkvGs5dlFn723IdQfiogXRcR2etlFREREOh+SzhEyvnpZ0Ml0dXVdc8wxx1QbbLBBL2GFYEV84S1E2CK6999//15CBE8twih7v7NgJ+M24gqhhCDMYhEQu8zxxhPZDjyjJP/KAhKhynzlww8/PP39uc99Lr2sMy86i0X+RSiz3ec///n0GUKcQQcEXiYLuxx2ToIx/kbINUF4IQib877ZD32UxQIeUwYC3v/+9/faFsFLH+SQeAYzELZl+DWDAE2BiJcYEdkMiccjv+GGG6b/02/N+kC2+nXXXbc7wR3eburkNiH0Dz300GrLLbdM1w0vN2KdARP6FWgfbcPbjAi9/PLLUztyiD+wHfPS6VNAJBNSjjAtYZUA7pPcTySdoz/xajdzG3Dc7bffvldIPAMxCOvmXHTuPe4XBlQyzGHfc889u//O1zVPBdhoo43m6e/99tsvnVuGOs358ySg415mYApOPvnk1Fc5CgLe8pa3pOPQ79/85jfT/5tRFHDSSSelQZRmgj1gMIV76vvf/75z2AcG67K/NSL+W99bb4+IjctKIiIiIiIdBVni8RrzEnziiSem0GA8pXjAc+j6Zz7zmW6RjFD57Gc/m7KZ8zleawQZIMIRq2xHqDIC6IorrkhLbrENYpplvvDg4s1vZlcHRDEeTbyVGQQbgp1Qc8DzipAqk4PxN15rwskBLzMe1OYAA4IR721OAIbwRGDS1l/96ldJKOJ9xYuNd7XMzs72iDXmYeMdJ8KAfiE0Ow9KIPDogyzkEP0IaQQw/Uq4OWH0CNWmuMZLjrhtDh40BTvh2YRx45FGmNJevNIMqOR2stQc+8ye/aZgB8Q+gxpleDvikutCX9FOliLjXPF4s0888ZxrFuzcI0Ql9DVPn+tKnfvuu6867LDDkreediGS2R/QbiIOyGKfoX+4HhybdlAXLzr3EVEJmV133TWJ9nz/ZMGeB2dmz56dPN946DkXrjP3ZM7UDvQrXu9MFuxcG+rixcdzXkI0CgNS1KGttJkoAu4d+p17m8EtIieacF9x73384x//YVdX1+jyeyhtYRB1VkR8NCIej4h/RMR9tWAnB4CIiIiISGeDYEeoMQ8XwcjLMIKYUPcvf/nLSWwgKhHSCC485ggtvOcYIczZc4lYRqwisglnR+QhjPI2eTuSjSHAmnN9qY8nFW9/c83wUrAjGtdcc80klJpQDy8xgwqAYMf73PSSM0+ac8yJ0jgOHn1EMGIYrzFCkP0QMs62iGFEeLnGN159hD4e1aZ3F084fcD8+QzzohGR9AdztnfYYYckotmOeeqAqKdtOawbsmDPwhRBiLe+FiypjYjm7C2nnXyevfSlYGfeOYMRtLEvSIx2ySWXpP7Aq06UBfPq+ZtrAwy8NI+TQeAzkFDCtcE7zT2U99FOsDNIxHQLBD7GoAninEEh7s9MFuw5IqSMnKAvuf4IcD7nnJknT/uAa9eXYCeCg8ERphuQm6Av6Fvm1hN1Qd8QcUE/EcKPaC8TFBJRwT4/+tGPEj7gsm79Mywido+Iu+p7/V8R8ap6mbet688OKzcSEREREek4EOx4hzG8vAgLxDTiEeFO5nE8pYSX41lG0OEBxfg/gjYLyhwSjxhDPLINScIQu3kb5rdzLLbLwpzjMrecEOlSGJeCnbnEzH1GVDX561//moQTodeAYENENb34WbBnDztt4+Wf0G7mW+P9Zn4y8/MRXUDbSHLW1zJt7JPzzCH+pWDHw0soNEKbeeVEG9AHzAdfUMFOX+V+ZluiFZh7vc0226R95AGT7GHvS7Dn+etERjRhn4hwricDNXjhSbxHwj4GJThHhCl9CgyuUKecSoAYJ8y8jJzI4LFmcAQYZGgKdtrKnHDaT18SwUHUBCKee6MZEt+fYEeM01fcY/Q1bcTLzzViwAlvOPQl2OlbPPIMGDB3vQltJC8D9x6J+ugDEs1x7/A9wevOgBHe+dLDTtsQ7Pfff7+Cff6cGxFP1ZngXxsRGzbKxtWZ4ac0PhMRERGRZQDCL1nqbP2yoJN58sknb2C+Lp7iJllQImQQKPyfbNtNEEeIQAQLIIQRqyTxQmg3vbJNSKqWs4UTXozXHRHOWuQlpWDneLQlz9vOIHz5PIeDE3Lel2B/0YtelP5G+OFVb0J9xByeUiIPOJctttgiibDsoW3yoQ99KB03C21CwTnvvHxZXs4sZzrPEI3Q/BzBR8h0c859MySe+fZ4u8s2cA5EHAAh2uwzZ8zn+jQFe553fcstt/TaB3/jTUesMn+9GX4ObEcIfL4GiF5EdHPqApDgjf2TUK4EMcs0gjxvnEEdBhxoH3AfcG3IC9CEgQymOjQFO57s5hz1T3ziE92DH4h1EgeWAywMQFCHkHfg+jKvPZMFO/cl150oEAZZmtD3RIEQLUCSQAR4OTjBoBP3chkBQlZ8PP1f+MIXFOzzZ/OIeEUh1EVERERkGYcs8U9GxHPKgk4GDzseTcQMIcDMHUZ0EsKNSMtzjvE2khAMby4iirncJC9rilVCzRE0eLuBjOiUM8eb/bDf4447rlvU4bHE64ogI5M6nl5CqrNl4Y+gz95dPK6IIsQPx0U8IuIRe4Te52OTkRshWwp2xDSRAMD8es6Jv/EkMwiAgKR9eGPzEl5EGBCWnUPuEdkIa0LHOS7e3nxc5jIzf5r+Y74zXmpC4amDxxdhzpxwhDHHQfwBgxUIQLbD243YRrAjLAFPPdeDwQuENYKQCAH6++qrr051smBnkOTrX/96Cumn3widxxtNX9DfDKq85jWvSQMx2euOSMfrjVClbffcc0/qEwYettpqq7TffA3YL+fT9FADERSIaTzPCGzmbRNVQP/SBvowD9Qwn5zrSJ8yp55rT7I6rg/TC7hWeMdzFAFRDxmOS79zzyD8c44FRDf3FDkVuKc4Pp5uBpQYLOA8cnZ/Bj+InOBYeOO5nnjhcyZ89s29wXmQMR6PP21hfjptzQNHJMrjXuUY3NtcIwY/yiUA8fLTt3/+858V7CIiIiIiAwDB/r+IuLYs6GQQ7AgKssIzvxpRhRhCJN91113dggMxh5eQUHEEHqIPz20WnIAww0ucRREiEW82opNtEKTMS84eWAQjAgeBh1eSbdkvRjtYUgxhR4K6nCUeCF1HlLIN9fB+Eyrf9D4jfJnDXgp2xGgOiWeeMYn2EL20j7aRqIzzZJ+I3gzZwxGsOYEaYo5QdwYymt5U+gmRRx36h+OzdB2DB3hw2S/iDSGMdx/RD5wn86zZL151+pBl1Zpz2BHR5AygH2kz4eUMOuTkgHip85x6xDBilRB32kGoPyA2GQigHXkQguMyOAIMFhCqTlu5D5hvj3eaiAUEa06uR/I/ypuZ3wGRzzlxzRHAtIXriUc8i/UMfUAZdZg7zlx/BD/3BPcCApdrxWACUQ55UIQBE8R2FulcJ/6fpwIwiMN1ZVCH64qAZjCASIEMYp7209+IdPqW4zYjN2gf9wR9zUAC9yEh8cD0AVYmyPcq14lM8KyYwPVhoCbD94ABArzyXV1dCnYRERERkQGAYJ8bEdeUBZ1MFuyA55y5uYjTZkbtJswrRsjff//9vZLGAd55wpPLdbcRjggiwrqbc9Q5BkvDIZjuvffeVId/McK68RgTnsycabzTJWQ2p167JGqIM0Rgc51wxCbznZtLlgHeUzzBDAQA50Uf5PnOTYgUoH2EwrdLsAZ4oOkfBGruC/qNvm3OH+e8sAzCnP7Do0/fcD0Q0M0kfAwIsG/2hde9hHOk7RhCnlwCiMxyXXDOg74j6qGEyAKEK+fIIABwLLzIWfgzt58BnmYIfxMGHDgPvOfNcyxBbNP32SPN/mk7fZwHA7h/aE8emADaTx8QmcBgA/dQOW+cCAfOkfugHdw/tI/rSHu5FxnQaIIwpy30eRn+DkSacAwGG4A61GXgIkM7GYDgWijYFxmmLo2JiBFlgYiIiIh0Ngh2PHW3lAWdTFOwiywMeL6ZFlEOBkhvmPufI0QQ7L/61a8U7ANny4j4U0TsUxaIiIiISGeD5+acetmgZQYFuwwUIhUIBcdDLu0hMoCpC3jX4amnnlKwLxrb1wOrh5QFIiIiIiIdR1dXV2tRcpEBwDSHMuu89MA8+OYKAU8++eRvFOyLxKxasM8uC0REREREOo6urq5ju7q67u3q6rpT07Qlanc/9dRTr6yqalT5PZQFJnvYWYJTRERERKSzqapqeFVVy1VVNVLTtCVqo/i3/A7KQrF6RLw2IjYpC0RERERERERERERERGQpQ5jqFyLijLJARERERERERAaPvKzbjWWBiIiIiIiIiAweCPa5EXFNWSAiIkMCcgBMq5/XIiIiIrIMkT3sN5QFIiIyJNgsIn4dEXuUBSIiIiLS2eC5uSsiji0LRERkSJCXdTukLBARERGRzmdERAwrPxQRkSHBrFqwzy4LRERERERERGTw2LEW7IeXBSIiIiIiIiIyeKwXER+uPe0iIiIisoxhOLyIiIiIiIjIEGNURHwoIo4vC0RERERERERk8HBZNxEREREREZEhCIJ9bkRcUxaIiIiIiIiIyOCRPew3lgUiIjIkWCUiboqI9csCEREREelsmMP+zYg4pyxYDIwsPxARkYUmL+t2RFkgIiIiIrKw7B4R74iIs8sCERFZaFjODcE+uywQEREREVlQ8ALdHhFP1janrCAiIgvNdrVgP6QsEBERERGZH7tExPvqF8r/RMSrI2LTspKIiAyIrSPi3xGxX1kgIiIiItKOYRGxVUTcExFP1B71VynURUQWOytGxDYRsVJZICIiIiKdzfCIODEiNisL+mHnhkf9XxHxJrMXi4iIiIiIiCxe8rJuN5cFbdgpIj4QEU/Va7frURcRERERERFZQiDYEd/XlAUNmKP+zlrYM4/y9XrURURERERERJYsCPbHI+K6sqAW6u+phfqjtUd9y7KSiIgsUaZHxJURsWZZICIiIiKdTfawX934DKH+rlqo/zMiXhYRGzbKRURk6ZHXYT+4LBARERGRzoakc4dGxCb1Wr/vrRPJkfWd5dnITNwXbDuiMLLHl5R12K5kQeq0O17JgtShjWWddsdbkDoDPV5JuzqLqy8HerwFqQNlnQVpU7s67fqyPN7TtU3t6izI8RakDlbS7ngL0qayDpR12rWprIOVLMjxFqQOlHXatanspwWp0+54Q6FNeR32LNgXtE0iIiIi0iE8v34hxFiq7a0R8euI+EMt4L8TEasX29wQEY8UxlJvTaZFxB+LOtcWddjvj4s6rynqACH5zTo/jYg1ijpECjTr/KkOJ21CG8t231LUWTUivlnUeU5RBz5S1KG/phZ1Lirq/KxNaOvhbdp0aVFnUkR8vahTJgvkZf+7RZ1vFXXgrDZtKlcKOL9Nm0oP38iI+H5Rh4iMJuMi4mtFHe6xkmcWdejLcgrGOW3atHlRZ+WI+EtR581FnYkR8cmizuuKOvCGNsdjcKvJCUU5x96iqLNtm/3cWtRZISLuL+qQL6KkrPPb+nyaHFLU4Tu4a1Gn3T13QVEHPlHUeXshDvn/x4s63KclxxZ1/hYRexd1jqifN816BxR1RkfEj4o6d7Wpc+d86sCzizrYXkUdjk9bm3X2LOrwvCjr3FHU4bv57qIOSTz5DjV5S1GHa3dKIdhJANrsp3/UA68iIiIi0oHwIkkYPKKGFz9ELmL4w3UyuqsiYk5ETCi22ycinlsYYqnJ2FqgN+uUL8Ts94qizmFFHeCFtFmHOZ2lUNmjqMOxaUMT2li2e7+izvhaaDfrlOICTi/q0F9jijo7LkC7N27TJpbPa8JazFyH/tqNeLqkqHNxUQcQkGWbZhR1tm/TpnJqBPfOZUWdUtQjnsp2n1rUgd2KOoip8n4iNLhsU9lu1qpmcKVZ58iiDuL47KIOArYEAVkerxwAQpw3yzn2zKIOgq7cz+yizqiIOGMB2lTWeVZ9Pk02KurwPSgHidrdczsUdYDBnWadY9oI9rIO17uEgZVmnesjYt2iDoMhNxb1ygSXCNzyeXFymzp81qyD6C1BeDfrYOsUdTg+be2vDs+Lsg7LZTahn44r6pzUxst+VFGHa8e90hTsDFQ2+4nBU665iIiIiHQ4vMSTEf7hiHgoIl7SRnyIiMjSg1wjRMAQrSIiIiIiyxB4dwj5LD1dhCK/o05Ih2fnttpTLCIiIiIiIiJLATw3hMET9t4OhDuh8k/UiegQ7oQli4iIiIiIiMgSBMGOGG+3DnsTssUj3J+KiK76/8xxFhEREREREZElAIL90TpZ2oJAsjIyZxMm/1idMbrMDC8iIosPntOrRcTyZYGIiIiIdDa8CCK+yTS8MOBxZ/khxD4e+rfVawWLiMjiheft/yLiwLJARERERDobks7xElgmnVtQ8K4THo/o54Xy9jbrVIuIyMBhMLS5rJuIiIiIyELBkkMsB9fMKs/61CIismiQ6JPnKuuxi4iIiIgMmK3rUHleLl9WFoqIyEKzQ/1MPawsEBEREREZCHjcDY0XEVl01oqI9xq1JCIiIrJsQuK5EeWHIiIiIiIiIjJ4jIqIByPiorJARERERERERAaPvKzb9WWBiIiIiIiIiAweCHYyu19TFoiIyJBgZERMq5/XIiIiIrIMkT3sN5QFIiIyJNg4Ir4dETuXBSIiIiLS2TCH/VMRcWpZICIiQ4Lt64HVQ8sCERERERERERk8ZtWCfXZZICIiIiIiIiKDx461YD+iLBARERERERGRwWPNiHhTRGxWFoiIiIhI5zMiIoaVH4qIiIiIiIjI4MFyQe8y1FJERERERERkaJGXdbuxLBARERERERGRwQPBPjcirikLRERERERERGTwyB7255YFIiIyJFgrIt4eEVuUBSIiIiLS2TCH/eMRcXJZICIiQwKXdRMREREREREZgsyqBfvsskBEREREREREBo/tasF+cFkgIiIiIiIiIoNHFux62EVERERERESGECtExGYRMa4sEBEREZHOZkREXBURO5cFIiIiIiIiIjJ45GXdbikLRERERERERGTwQLDPjYhrygIRERERERERGTwQ7I8q2EVEhixTIuLsiFi1LBARERGRziaHxD+3LBARkSGBy7qJiIiILKMMr5cKWq8sEBGRIYGCXURERERERGQIomAXERERERERGYJsExH/i4gDywIRERERERERGTxWjIgtI2KlskBEREREOpthEbFLRKxeFoiIiIiIiIjI4EGW+L9GxJVlgYiIiIiIiIgMHgj2JyPiOWWBiIiIiIiIiAweCHaSGV1bFnQyXV1dc7q6un6sadpSt9eV30eZL2MiYtuIGF8WiIiIiEhng2B/KiKuLws6ma6urudVIrLU6erq+nj5fZReXBYR5xWf5WXdDik+FxEREZEOZ3hEHB4RG5QFnUxXV9cNpZAYKF1dXdUjjzxSzZ07tyxaJB5//PHqn//8Z/p3MHjqqafSeT388MPVP/7xj15G2eLkX//6V/Wf//yn/HihefLJJ9O+/ve//5VFCwx9/sQTT6Tryr6a501f/Pvf/y43GTLQZtpXXjPOYzDgOnAPNenq6vpQ+X2UbvCgf6EW55+LiEPrQdUNXYddRERERJYZFqdgR5CceOKJ1cte9rKyaJH45Cc/We24447Vxz72sbJoqfCXv/ylOu6446ptttmm2nLLLXvZ4YcfXr3zne9cLMIdcXzggQdWl19+eVm00Pzyl7+sDjvssOrd7353WbRAfOQjH6nmzJmTBl9+85vfVIccckg1a9as7vPeYostqh122KE6//zzq6985Svl5gvMb3/72+pPf/pT+fEiw6DHhRdeWG277ba92sw15B69++67y00WmD//+c/V//3f/5Uf98vvf//76rTTTqt+9KMfdX+mYO8XVu1YNSKeHRG/r0X6fRFxQ/3/fcoNREREREQ6jsUp2PFmrrnmmtW5555bFi0SCPWtt966uv/++8uipcLvfve7aurUqdUaa6yRzu2MM86ozj777CTiOV8ExPOf//zk1V4UiCDYa6+9qosuuqgsWmi+//3vVxMnTqxuueWWsmi+/O1vf0v9feutt6a/v/vd71YrrLBCNXPmzHTeZ555ZnXWWWdVu+yyS/p8xRVXrN761reWu5kvX/rSl9IgAAMyixuiAxDpyy+/fGpvbvN+++1XzZgxI12zSy65ZKEHWh566KFq9913r575zGeWRf3CvcG9c9BBByXvPyjYF5jVIuKqiPh7LdaxORGxQllRRERERKSj6OrqenYpLgYKIccbbbTRYhGcQwkE+/Tp05PAKyHsev/996+GDRtW/fCHPyyLB42f/OQn1corr1y96EUvKovmy4033piuYw7N/973vleNGzeuOv3008uq1a9+9avktR4/fnwS9gvDhz/84bTfL37xi2XRIkPo+1ZbbVVtt912ZVGKBDnllFOS8HvPe95TFvfLH//4x2rKlCnVVVddVRbNl5/97Gdp0OeOO+5If3d1dd1dfh+lX0ZHxBUR8Y1atD8QEbMjYmRZUUREREQ6D0Iwp9VZiJkfeUZEnFLYqRFxfkRcVHt4hoJdWL/EXlOHjy6MPePOO+/8RBYUP/3pT6s3velN1ctf/vLq05/+dArRLiG0lzDrl770pcnz3Zwj3Zdgxyv5/ve/P21DqHVz7jPh1q9+9avTMV/xilcke9WrXlW97W1vS9vQhj/84Q/V7bffXv3617/utd8f/OAH1etf//q0/de//vVeZXj7P/CBD6Rwa47xhje8IZ1bO1GN9xNvL8d95StfmTy+zXn4/Ql2eO1rX5vEX9NTzD7pQ87r7W9/exK2Tb71rW9Vn/3sZ1PoOueAeEUgf+hDH6o+97nP9apLSD7nQv/de++9qZ9LHnvsseqBBx5IdTjud77znWr11VevXvjCF/aqR1+8613vStMWPvGJT1SPPvpor3IEKeeavevQn2CHr371q+n8y1D+v//979U999yT2vTGN74xtSlDf+D1HjNmTAqrb0ZPcM0/9alPpTa+4x3vSG1eWLJg33777cuiBFEEDGgQJdC8z+mPz3zmM+k+5L76whe+0F2O0CeSYqWVVkpe9ve97329tv3mN79ZveY1r6le97rXpT5rx6GHHlrtvPPO6f8/+9nPvl8nVSu/009X47nY7rm5OOzkiDg+Ig6LiKsj4se1aCdRKMKdssnlQ11EREREOgcSGv0pIq6MiO80Qi+fLvZYRDy+kPboTTfdlOK43/zmNyfxxFzxAw44IIUSH3zwwWm+boZ5v4SGr7322qkMEbfPPvskoQ+I5FKwI8RWXXXVZMyDnjx5chJRWTgj4o466qgkZDD+f8QRR6Rz2nzzzZMQRcQSeo1AAkLHr7/++lSHkGpEF/9HUCISgTnGhKsfeeSR1YYbbpi84PzNOd52223d7UOgcryxY8emcOVdd9017YvQ6b/+9a+pThbsl112Wfd2TZ71rGelbfJcbtrAuYwePTr15WabbZZEHkIu85znPKdaf/31U+g5Am6PPfaofvzjH1frrbdemnue+fjHP16tu+66KRyd9hHmvskmmyRxmKGdlI0cOTIdD6FOv9BmxHIGoT5hwoTUD9SjTzkunt9mHfbT9Hpnwc4c7HYwAMO14lxyuPfnP//5aq211kpG/3Je9NELXvCCVM4AC97v5ZZbLt1zuZ2Ic86F+482cq6TJk1aaE94fx72DNeTa8T1BQYREOL0UZ6zT5tPPvnkJNb5LpCzgLbxHXjGM56R7k8Gd7jnqcu9yPUk4oKw+XJAhAEXvgN8ZxhYafM91uZvXfUSnM3PfhkR+5UPdRERERHpHBDsiNjnRMRetcfmhML4jGzFhGEOFSMagARMu0TEbgtpu3z3u9+9DcGBoETwZo/5W97yliRmssDCm00d5gH/4he/SJ/hCUb87bvvvmk7hFtTsP/85z+vpk2bVh1zzDHdAv0b3/hGElGEUWdBXHLDDTckUYR3Fj74wQ+mtuBlB7zWvKQ/+9nPTt5nxFT+7Iorrkh1EES0F4GLCMUTiohHVCIAc8ZuEquxHd58QIDhWeWzLCKJKmDeM3OQEePZEPsclzncCD32iWedwQxEM9EEgJf/4osvrkaNGtUthDlHjoFXmvnWRA8g7hjYQOwDQhlxxyACHnnAK08iNfqdyAPgutE/eKMRzIh5RDD751wALzh1EM/0A3O3aR+inrrZa3/SSSclodqMgpifYAdELR5r+pnzYYCBpHT5upNc7uijj07Xg6gCIKqAASA82kDbaR99R7QA0Mf0HYMLeLsXlAUR7ERd0Efck8B14zj5urEPRDd18r3HeXCNrrzyyu798B3h2hKhwfeA7xMRCs3+zzAgMXz48DRo9NBDD30tIg5q851+OtsxbZ6bi2o8d4+rn3X8n/XreVbTx3+MiOsiYpPygS4iIiIinQWCfW4dWr7MgIP4v//9b/KqIrqytxwIE8+hvQgXPI8IMEK3EduIE8LBESDf/va3k1hDsCOwgPDhESNGJC86IiZvg7Dk0HhhSwgppgzxk0GwI4rx8COI8Vi3E2IMJuCxRcgigDl2mQAPzzztRXjBzTffnELlM4huQsXZTxb/7G+dddZJXlOEK954PPX8Sz3Ees7+zbmyf+Y4I/4JvWafiFQGL44//vjudiDymqHy9B9iFdEKN910U+qLpjcdEJR8Tpg5/cmc6ksvvbRXHcQwAp3QbiBZHGK5GTEBTD1gX1xrwFNOlEOTBRHshLczuMC9xAAF14J59EA/cO3xaDeFN5ETTcGOx5n+5JrkvmPggAR63HvnnHNOr2P2x4IIdgalOHeOC1wzPODAgAYDD/QP14mBGUBwNwV7jiphkIUBl7yMHPc70Sdkpm8mtmOAievAvdXV1XVn+X2UflknIl4ZEb+LiF9FxC0RsWZZSUREREQ6EwQ7L/A3lQWdTM4Sn8O68T4T0osAy0tXITgQpXisCfndbbfdUh3+xduLMEYgIjg33njj7tBxls9C7Oy0007zbMMAAfOymyDM+Ryvcw6tzp8j2BFTiCjEW/b8N2EuOOeAwERYsS+88E1IqMbnzYEJ2oF3lQzteLPxDrOf6667LpXjYV9llVVS+Xvf+94Uns08fkL0y/nueGI5Z0K599xzz3TO7BND4BNqDwj21VZbLQm8DKH+CHbC+AHvP4IWEdyEtiPSEY14h9kvS8s1IW8AIfcveclL0t8Ix3K+NhCGT3uZZ89gCEnRSmE+P8HOoAHilNB9hDZwLtdee206X/ohh79z7fLUASIoOL8smLPHm0ED7rfcd/zLdoSjLygLItiZ38/xmku00QZC8rnW9BffB+rk6QwMsCDYCYcHzoX+J/Q/X2+24/9cS/qkmXOA+5fpAfTlk08+aZb4BWO7iLgrIv5bP6Ox08pKIiIiItLZkGn4oxFxYlnQyTSXdUOY4cVEdOMJJSydxF8IOcKkEVIIVDykhGZjhFojePAiI5LwNmbBjqcYr/JHP/rRXtsgcvBI5/nmwJxmhA+eyqZYh6ZgR/yQkbyZFC2Dx7kp2BGiV199da86hKIj2PF4I14RXnjLEdis243Xl4RnnH9eugvBznksyFJeCGf6DTHIeeZzJpqAaQU5gRpiFpGHgMu0E+yErDcHBIA553yOYP/yl7+c2k/YfxP2y/XKgp3/M1jCMZo8+OCDSUjjSeY6c/wyudz8BDsedbzG5AkAIhIIh8/h/Cwt97Wvfa265ppr0rXL0wJKwZ6jK7jn8PjnvuPewcteJh3sj/kJdgahmCPPVAe8+PQLESb0JdMm8ICTP4CBGe49khFCKdi5rvQfkRzN640RdcK1avY512WDDTaoTj31VAV7//A83qYW6twXLOl2c0QcUf+9b7mBiIiIiEjHgWBHbBN+3QyXRsghLPAsI5IRs3gbCVNugkcVQYeXNQv2nE2dEGNEM/OQmyAMETN52TDmuiNeWTebkOGSZkg8Ipt24dEt4bi8zBPuPj/BTqIxRDv1ObcmDCYQNdAU7AjkHOrfH4hL9tlu/XNCxLNgR7wyD73pfc2CPYfEk5iOfeXQ8gwDCnzOtAH6ELFcLjOGeERkI36BaAciB/Lc/QzRBewLgQmbbrppdeyxx/aqkwU7URftYA32phea6Af+ZqCmCaHuiNscfs/1ZCCk+TfblfO+gWuSk8MtCFmwM3DQDgaIOFYenKC/+PvFL35xr3pMP+BeyFM0uGf4TuTIDdqEgM9THZpw35TXjqkBeQqD67D3CxFPX4qIJyLi1ohYu/5881qwM19eRERERKSzQbAjbngJxoOaE8EhJBE8eNsRyXhyqcP61TnZGR5PwocRmYgT5vCSkR3PMDD3mnnfeDKzd5RtOQ7eV5LX4XHEC0t4eLn0WQZRicc7r1+Nd5q2kNk+ey/xviPETzjhhOQ9xbPJ36WQJRQdAdYU7Hg7c9g5IeIMBvB5Fuy0GWFZLlfXDgQ0HlrODw8tMKhBqDWe9+zxRrATfl4KdvohZ4nHE43ARUDTv8DgBn3O9AQGVeC4445LAxo5URsDLyT6y6IeKONvBjXyoAhea64XYduE0APbkYSu6dXPgh3PP950jEEYPicfAQMjeLLzYM7znve8dCwiHoABGgZdGPBhfn+es841I6qCqQzcgxyTFQToO/IIAANBnAP9kL3cfMa91ZzWUJIFO/kOaGtuN8L/vvvuS+fMPZWXmssDLUwNyfcUif5oT7MfuUcZ+OA+y/2I+KYO55GnBDBYgfe+jErISeeoq2CfL3u0SSa3Qy3YDy8+FxERERHpPHJIfM5qjcBhXWzm2eJJRNwAogtvLcKJMpKKIS4RiohRQHyz3NV5553XLVAQbYQZU5dt2JZ9ZM8v/3JcxBVz10mOlo12EDaP5xWRk5f2QozhGWU75kgjJPk/Qjsnk0OY8VkOXc5ksc9gAQMReNf5m3n27DMvP0ebCZEGBDuh3LRnQcCrmuf2I6bJos8xEOJZ5DGQgPAr57DjyUeQZxDEzN9GYNI+rgl1ciZzQMwzd5rjISTxknMdEMgvetGLUh2mGRCmzwAK4fEMUnBOCHYGYzIMgpCsjqkOmSzYEebUJ8KB+fEMiOR+b65vz2AIgxaUMdgwe/bs1G7On21y+D79hLeZetwbgBAn0iJvu/fee6f/M1UCwQ0MtNCWZj+VcI/kZdloK23GuK58xkAUeRcyDDaRIZ8yrhf/J+s9149BBQZ6gIEdBieox0ATEQu0i3smb5sHS8gb8N3vfrfRqip9nxhsYXqEgn1ArBUR76g97SIiIiIinU1zDjseXYQJ83ER0s31uTMIKkKbEeWI/KZQQ/QQzlyGQuPJRTiyX7yvhMNn8EITXoyARTzjncf4P55LPP60gxBzRE4Gsc0a7whyvMZ33XVXr+RsbPfc5z6328udYb40n2dvMCL5zjvvTPPumbf8sY99LO2bMG+yiDNQgdecUOnyvPqDgQYSuXEuzDVHHGbvK5ALgMzjzXW686BIXm8+Qx/Tf/Q5nt68rF4TBCrHY1CBzPB44hksKTPxM5ecxHvU4/yyCM4w4IGHO2dFB7zvnD/XiXPB6HeuJf1VzrHP2xAiz3GoRzQA/cj/WQ4wQyg++8V7nnMXcG2YU0/fEeVAvzfngbMfBi9IQlfmO8jghWfpNPbNPnKbmWbA9W439YL7h6SCTH3A057n2tOPRAhkuB7cjyQlzPcRx2NOPvcQkRgMLjVzNGTIwM9gDu1WsIuIiIiILDgkOXrDsjY3sinYRQDRiZe7OcAwlEC8M0iTvd5PFxgMYRpEXkZQwS4iIiIisuAs08u6iWTw4DN1AY/9UIQ5+ni4cy6FpwN41PHakx8gD4Qo2EVEREREFhwE+9yIuKYs6GS6urpuLsWFCCHdLPFXrtsuA4PweObkf+Mb3+j+rKur64Hy+ygiIiIiIu3JHvbnlgWdTFdX15VdXV0PaVppP/3pTx/673//O8/n2sLbI4888tAvf/nL8vN3lt9HmS8bRMQnI2L7skBEREREOptREfGJiDi5LOhkurq6xnR1dU3v6uqaqmnaUrPpVVWNL7+PMl9c1k1ERERkGWZM7WkXEZGhx6xasC9TyUFFREREREREhjrb1YL9kLJARERERERERAaPbSLi3xFxQFkgIiIiIiIiIoMHuUamR8ToskBEREREOpuREfHqiDiwLBARERERERGRwSMv63ZLWSAiIiIiIiIigweCfW5EXFMWiIiIiIiIiMjggWD/X0RcWxaIiMiQYGJEHBERM8oCEREREelsEOxPRsRzygIRERkSuKybiIiIyDLKsIjYOiJmlgUiIjIkmFUL9oPLAhEREREREREZPPSwi4iIiIiIiAxBtomI/0bEAWWBiIiIiIiIiAwe4yJi74iYVBaIiIiISGfDHPbNImJaWSAiIiIiIiIigwdZ4v8REVeVBSIiIiIiIiIyeCDYn4iI68oCERERERERERk8EOyPRcS1ZYGIiAwJJkTEoRExvSwQERERkc5GwS4iMrTZoV7W7fCyQEREREQ6mxERcWpEbFEWiIjIkGBWLdhnlwUiIiIiIiIiMngo2EVERERERESGIDvWgv2IskBEREREZKBMioiDI2KFskBERBaYmXWekXXLAhERERHpbIZFxMYRMbUsWAQmRsRpEfGriPhfRGxYVhARERERERGR/iFL/NyIuKYsGADjIuKsiPheHb757Yi4OCJWLCuKiIiIiIiISP8sjmXdxkfEORHxf7VQ/0FEnFt72kVERERERERkACyKh335iDg/Ir7TEOr8PaasKCIiIiIiIiILB4IdsX1zWdAPY2sP+g/rbR+MiDPqJHMiIrJ4IQ/IZ+ts8SIiIiKyDDEyIt4UEYeUBW0g9P3sxhz1H9Wh8HwuIiJLhh3qZ+5hZYGIiIiICB71MyPiJ/VL449rj7pz1EVEljyz6mfv7LJARERERJZdEOQn1550XhZJKsccdbO+i4gsPbarn8GHlgUiIiIisuzB8myEupNEjpfEr9Trqo8qK4qIyBJnlYj4QERsXRaIiIiIyLLDmhFxUUR8MyIerZPKkQH+OXWSucvahGSOjojjI+KZEfGMiLgqIg4o6gBz5CmjDnZFREwo6mzQKMcujYiZRZ3VGsfKx9u1qDM8Io5t1OPfgyJiWFHvpEadK+vogXJQYu3ieJfU/dRk/Xr7Zps2K+rAKcXxyvmotPuYxr6oSxtLNi/6ElurqLNuRFzeKGdf9F0TEg5eUByPfmtCm2hnsy+PLOrA7kWbqLdqUWeN+h7qr90kLmyWs8+DizrAZ802HVXnY2jSbDdGf5T5Fri/msfjviTBVxPEUtmmnYs6cERxfflelPcT34NmnfPatJv7q9lubJOiDm26uHHtaFNZBxhoax7v1PqaNtm/6EuiasrvypbF9eX/GxV1pkfEhcX9VLaJ58Wcog79VLJ30Sa+B6xK0WTPok3sc+WiDs8Y+qnZl1sVdYgkat6X7JPnRQltysfLfVmuiNFsN8Z+GQBtMqVoD/vCg95kcv08yv10dUTs1ua68F1sXl8GWlco6oiIiIjI0xjEwqsjYr/6Bfz7tVe9KyJeHxH/rcU7n2EfLLZHAH21UY69u6gD9xR1sPWKOicW5U+1EUa8EJf7ubWoMyIivlzUuaONUMnJ87L9o56v34QQ1GadJ2uB0+S4Nm1igKMkZ9XPdn/xAk67P1/UoY0liKLyeOVACgK2rEPfNUFI/LOo88WiDqL+vqLOp4o68Io2x9ujqEO/lXXKZIeI5bLOnUUduLuo8+k2gu4jbfbFAEwTsm6XdcpBEoRSWeeFRR34WFGH70V5P5Xt/mubdiMWy+OdVdRhgOTxog55JkpYwaFZhzwU5QDBO4s6TH0pvysMVJVtQrA2QXT+Zz5tYkCmrPONog68sajD9wAR2+S1bdq0S1GHwbQnijoMBDZhoLDcz/uLOlC2ib4tBxRJ4Fnua/WiDgNuZZ1rizqb1s+jZp0bijrAd7FZ56GImFpWEhEREZGnL+WybivVL9m8RPP5vyLiBRGxTf3CXC7dxos9L614SrO1e2GcVtTBSu8j3qpmOZ5GPHJN8B6V+ynbBGWbOH4JXspmHV6sS6HCfP2yTaUHq2w3VnrVoDweHsmSst1sU8I1Ko9X5hVo16ay3ZwrXu9mnVKAMKBAO5t1ZhR1gGtQHq8Uou2uXdlu7omyTrtrV95PtKn0Ppbtxkqxyv1V1ilFNudR1mmXcJE2NOvQl+X9VLabe65sd7t+Ku8n2sS92KxTthuIcmjW4X4qj8f3taxT0u6eK49HX5b3U1mn3T1XesWBZ03ZprIvyzpYec9xP5X9xLmUdcr9tLvnyuPRtwyyNcF7Xu6rvOd45pZ1ymgj6nBvNOuU7YbynmObsk0iIiIi8jSGF8O5EXFN8TkCgXDar9XCnXnsp7d52RcRERERERGRJUD2sLcLtwQ8p8y9/lldjzBQwnPbebVFRGTxw3Slr9dTOERERERkGYJw0C+1mWtaQmgr87LzHHf+PbuPME0REVl8bF8/d13WTURERGQZgxB35l2Wc4n7As864j4v+Ybn/Yw2CaFERGTxMKt+3pbJJUVERERE2kIiJbKVs+wbL5I/que463EXEVm86GEXERERkQFBdmNC5bPHHeFOqHyZ1VpERAbGFhHxm4jYqywQEREREVkQCKk/v7G2+XcjYk69vJiIiAwcpi6RILRc2k5EREREOhxC218XEQeVBQOE9anJIo+nHeFOZuONy0oiIiIiIiIi0j95Wbcby4JFhJB4PO6fi4g1y0IRERERERER6R8E+6MRcU1ZsJgYXYdzioiIiIiIiMhCgGB/PCKuKwtERGRIQHLPgyNiWlkgIiIiIp0Ngv2fEXF1WSAiIkOCHeqpS4eVBSIiIiLS2RCuvprrp4uIDFlm1YJ9dlkgIiIiIiIiIoPHdrVgJyxeRERERERERIYI20bEExFxYFkgIiIiIiIiIoMHSeeOiIjpZYGIiIiIdDbMYd84IqaWBSIiIiIiIiIyeJAl/n8RcW1ZICIiIiIiIiKDB4L9MQW7iIiIiIiIyNBCwS4iMrSZGBFHO4ddREREZNkDwU724evKAhERGRK4DruIiIjIMsqIiLi4XudXRESGHq7DLiIiIiIiIjIE0cMuIiIiIiIiMgTZsRbsh5cFIiIiIiIiIjJ4TI6IUyJilbJARERERDqbYRGxWURMKwtEREREREREZPAgS/zvI+LyskBEREREREREBg8E+5MR8ZyyQEREREREREQGDwT73Ii4piwQERERERERkcEDwU724VvKAhERGRJsGhH/FxG7lQUiIiIi0tmMiIjrfREUERmybF8PrB5aFoiIiIiIiIjI4DGrFuyzywIRERERERERGTz0sIuIiIiIiIgMQTaIiM9GxHZlgYiIiIiIiIgMLsPLD0RERESk8xkZEXdGxLFlgYiIiIiIiIgMHnlZt5vKAhEREREREREZPBDscyPimrJARESGBMPqaCj+FREREZFlCAT7U/Va7CIiMvRYLyIeqJd3ExEREZFliFER8YOIOL8sEBGRIYHLuomIiIgsoxBiOTkiVigLRERkSIBnHcE+uywQERERERERkcFjh1qwH1YWiIiIiIiIiMjgsXFEfD0idi4LRERERERkKfDoo4/u8/jjjz/zySefvFjTniZ21WOPPbZpeS+LiIiIiMjigaWCXhQR+5QFsnR56qmn3l2JPM3o6uqaU97LIiIiIiKyeGBZty6XdRt8nnrqqbeVYkhkqNPV1eUKEyIiIiIiSwgE+6MRcW1ZIEuXp5566rZSDA2Uv//979Xvfvc7xFRZNGCeeuqp6re//W310EMPlUVLjYcffrj65S9/Wf3sZz+rHnzwweqnP/1pt/HZX/7yl1SP86fek08+We5i0HniiSfatu2Pf/xjOgfO5de//nU1d+7cXuVN5ndd//nPf6Z9cKzFCcflHvjvf//b/Oy88l6WRWbbiPh4ROxfP6NFREREZBlFD/sQYXEK9quvvrraYIMNqkcffbQsGjCIwDXWWKM68MADy6Klxg033FCNHDmyWnHFFauVVlqpGjduXLeNHj26etaznpXqXXHFFWTUrv7whz+Uuxh0brzxxurwww/vFuR//etfq4svvriaOHFitdxyy1VjxoxJ57jnnntWX/3qV3tti6B/5StfWT3yyCO9Pi95wQtekPoE0b44YdDm7LPPri655JLuzxTsSwSywv++zgz/sYg4MSIuiIgZZUURERER6WxGRcQvI+KSskCWLotTsD/jGc9I4npxCna8tZ/97Gerb37zm2XRUuOZz3xmErNvectbqi9/+cvVl770pW773Oc+V/3qV79K9X784x9X9913X/W///2v3MWg8p3vfCddF9oKeNnPO++8NLhw/fXXp/794he/WL3rXe+qVl999WrChAnV97///e7tua4I8X/961+Nvc7LL37xi+oTn/hEv176gfKtb32rmjlzZvWxj30s/a1gX2KsERHPioiHauGOPVOPu4iIiMiyx4oRMaL8UJYuXV1dby3F0UBB2K6zzjqLVbAPBTivsWPHJkH+dOSoo46qDjvssO6QdsL6EWLXXHNNWTWJesrOOeec7s/wbE+ZMqVXvcHgrLPOqvbee+/857nlvSyLlXER8eqGaP9ERBxQVhIRERERkSVIV1fXW1A/t99+e3X00UdXhxxySBJ473nPe1IocpOPf/zj1UknnVQdfPDBKbz6TW96U/X44493l7cT7HhGzz333LQN+37Ri15U/fvf/05lzEm+6qqrqtmzZ6fyvN9jjz22OvTQQ6vvfve7qR6Cke0yCE+8wbSTbY477rjq7rvv7i4H2vL85z+/+sxnPlOdfPLJ6Rhnnnlm9e1vf7tXvX/84x/VS17ykuqII45I7UPYvupVr+p1DuyLkPFy2xLaRNvxRNPGyy67rHrFK17Rqw5zxU8//fTUl/DhD3+4OuWUU6qvfe1ryZNNO48//vjkyX/ssceqm2++ubtvPvCBD/TaF7zjHe9IfUb5iSee2O2Bzvzf//1ftfLKK6d6mR/96EdJhDVDzDOc9/Oe97zqjW98Y/r7hS98YfLOEza///77V5///OfTOSDo3/e+96U+ZboCnvUHHnggha7/7W9/S9syIMBx77333tQvBx10UHX++efPM/DBPHrqUs653HXXXdXLXvay6jnPeU7qgwzXePjw4Wn7rq6us8p7WRY769Vi/a6I+GlEPFH//5A6SkpEREREOph1I+JlEfESbdDslq985Ss/uOOOO5IHGQGMyEQ0jhgxIgmmzJvf/OZqhRVWSB5OhB6ikjBpQquzqMqCPYeEIx4Jr95mm22qOXPmVKeeemo1ffr0JPBI0EY9BO0FF1yQ9smx+ReRgDD74Q9/mELiZ8yYUe21115pnxyL+rQPkco8bNo0bNiwJDSzF3mLLbZIYezbb799EsgMGnDsVVZZpfrJT36S6iCs99tvv7R/hCfHR5Sy3XXXXdd97lmw5wGEvrjoootS2//85z+ndqy66qpp4KEJoeecG3PC4cUvfnHaZtNNN02ilnOjPZtsskkSrwcccEDqO85n1KhRScgDfUeb6d9jjjkm9Rv9wDx7rlWGvAJ89vOf/7z7M0Q5gxwc94QTTqje+ta3du+3BMG98cYbV8svv3wS49/73ve6vfCTJ09Ogzz0L2H1L33pS5Ow/81vfpO23XbbbVOf77bbbsk7fsYZZ6Rtttxyy+4kgtwHXKNJkyalOpwTAwTsf8cdd+wVXs82G264YXXLLbcwPYHkaDe3uae1xWPPj4h314L99oi4LSLm1n8/WSenOzkixpYPdhERERHpDLaOiMcbIZfaIBjzshHDiKMmiOt99903/R8BOn78+CRIm+A5Jenahz70ofR3Fux45vGib7755kn8N8FLjSB+/etf3+vzzGte85ok+j74wQ+mvxHVJLJDvMI999yT2k0iuCYMHCBomVcOu+yyS9pPbhvwf7bN3ua8r49+9KPddQBBudFGG3UPPFx77bVpgIA+wguPiMYQ98997nO7tyNagHMjazyCHdGN17sJCd0QrW94wxvS33jzaUOzb++///70GQngcgQD8+RJeMcxAG8zdd72tt6r8l144YVpoOD3v/99+ptBmNVWW62XpxpIjMcxGehgP5zfzjvvnER5GUlw+eWXV1OnTu3++9Of/nTahr5owuDDtGnT0koBsOuuu6ZBna985SvddV772tembT/ykY+kv0mGx3X71Kc+1V2H/XO/IfTL6RU5moBBjPJe1paI/Tsi/tXHs/p1dei8iIiIiHQYwyPiwIjYOSJW1gbPHn744duvvPLK9AKOdxeveF6aK4u8LGxvuummJHrf//73p/Bs/kWw59BqvLkIdvjGN76RtkFgIs7yNghxkocRgl6G3BNizzbN8Pcs2KkPl156aRLFLPPVBM8v2xLeDrNmzUre2KbgIxQcIZj3Tyg2Ah9xi0glpJtQbLy9RAXk0H3CtfGKExlw2mmnpcEMDO90M+R9IIL95S9/eWr3Jz/5ye46OWSdrOsZwszpB44PCGu813jH77zzztS/DKDQVrZ9+9vfnurtvvvu1R577NG9nxI874TlE6lAe9kWrz37zCCOmcOe+wNxzWAIfdWEvm8KdvqwPDb3AsfIgybrr79+2xUAaPcOO+wwj2DHA8+1feCBB64u72VtsRqZ4SdGxJSIOLSew861IxkdQp0BVxERERHpUMg4zMsf2YhlEOnq6nozoph53ng6uS6EZCOQCd8GhBmfI9rwtPIvhjhDfD/72c9O9VjeLAv27CXO9fI2bE9YOuHfzXW1GShABBJe3VzHOwv2I488Mv2NAMZjzLJkTRhkQIwzaACIOsLImyHVP/jBD5IYzUIY7zXh1VtttVVqE95gtqGNhGn/5z//SfVy0jmEdH+0E+zM+W/CXHX6oRTsua+BdpYDF0Q50A8IVqA/OBb937wmzFfnMwQ7AyKI5jzYkSEMvd3Sc7SZufWIaIwl9aAU7AwulKH3UAr2rbfeep4ICwYVmgMKDDoQFVBCqD0e/zLjPINKREB84QtfOLO8l2Wxs2FEvKP2sv8nIl4ZEVuWlURERESk80CwPxoR15QFsnRhWTeEGOKMuceEIxPqjCBD+JFgjLBrxCEinHnEeKb/9Kc/Ja8vYePlHHZA1CHMmB+P2GQbDDFLfYRY9rCzZBtimxD8ckm0UrAzzxkPeJ4DnWFeOm1EgAOCnZD85qAAS5Uh2LMQJqEannMGGkhkhtee+oRiM6e8KdiZw04Cvf4oBTth9aWHnaRtDAzkpG5ZsPN5Jgt22pcpBTtz4xHVrJHOtcjXhP7K14RzIYyfEPImJOPjOnGcdtCHDJ7kAYos2HN/LIxgL73npWBngIHBohLOb6eddprHw04uglqwu6zbkmPziHhLnWTubxHxnojYoKwkIiIiIp2Lgn2IMHfu3NtIQMY87SavfvWrk7AihJn1tfl/c742IPJJ9JbnKDcFO6INYUroeBNEOoI5Z0knHJ3QdcR19ug2KeewM8edtpTzzgkN5/M8952EZ30J9hw2z3HxgudEdcDx8OBvttlm3R7lLNjntxZ8U7AD3m3moTe59dZbUztvu+229PfCCnYStwHn0K4faCPXhIgDzgvhyzk2px9k0Yz4bUYzAAIZr/haa63Vve46Xm0Ee97H4hDs+fwZiCG6IfcZEAGw9tprJw97Kdi5V+nTf/7znwr2xQ+i/J21UH8kIu6un9FjyooiIiIi0tnkkPjnlgWydHniiSduy3PYmY+N4GOOMt5NhGueK46nOIv2r3/960lwI0j5LCcMYz8IvZwo7frrr0/lCD5EPaKU8Gw+Y841XnYSt/E3QpwlyJjjnQ0x/8gjjyRPcs62jieZEHYSsDEPmvaSyAyhzL6yyEQsIrpLwc522cNOKDbHJrs53nPmbZOAjwRsbI9wzOdFhvz5CXaEPR777P3P88kR3uyfzPD0D95rBhggTzdoJ9ibc9gR7Outt16aMgBcl3XXXTeF6hMBwf7pD4Q0n1MfEOUMNuB9zyDSWZaNYzDHnLaQp4Dt8/k3xXjO3M9n9AlL5ZE1npwDTUg6h7DPgp3rRHK+JjkfQt6WXAf0xz777JOyz7PvfE8QcdEU7FxLIifI5t/V1aVgX/zsHRH/iIg3R8RaEbFJRPw1IvYvK4qIiIhIZzMiIq6KiJ3KAlm6dHV13YZwRgQRal4PpCQva864DswZZ344Icy5DoKqmYWdbOJkKM/zjhGGeF3xZOdtSCT27ne/O5UjgPPn7Yw2sS+8rU1PLQnmCKNGnFKPOdxkPM/LiQFineM2BTvbIbxz2Dyiljnm+XgIYtY9J0SexHCISeC8ELEMVPTHFVdckfaT54fTHiIMGEzgc7KmkxWeZcsYoIDscWdZtAwDC3yW2wkMAqy55pq9wse/853vpMR3JP6jPv3BwAoDHxmmMXBdSSzXBCHMYAFtavY515T11Zuw5BuRE7lNCGvOKc/DzzDAwNSGPMjDtAKWmmuSs9s3t73vvvuq7bbbLn3OQAADKUwnKLPEMzDEcZm2oWBfIpBkbvXG39vU9wXrrouIiIiIyNKGOexZEDFfHXGGt7YMlc6wvBh1ENvlUmEIVNYqL7O/IzbZBi979oADc6IRwXjTKS+NsG72hdB+8MEHe+0TWKedes01xjN4qRG+zbYg3ml3mXAN4ct+8lJozAGnTdnDjgClnXkOd19Qj6RyOcIgQzvYfw6x53jZC4/nm2MRSZBhkILPmu1kn/Qt0xNKOFf2T3+0gwR6eNTbQZ+QIZ/t+bdse4Zzy9eEa8hgRvbiZ4h+4N7J9wXtymveZx5++OF0bnlb+pz69C33R55XT5b4/fbbr9d0BZaAy8sGKtiXCrNqwT67LBARERERkaVAU7BLZ/Le9743efWbEQhDBZaTIxKiOThBNABRA80IAxIcMp2AOf+gYF8q7FAL9sPKAhERERERWQoo2DsfPNJk/sfL3lfkxGCBV51pFsy7JyyeOepMR2DuO954ePLJJ1NSRLzuORJBwb5UmBARB0fEtLJARERERDqbYXVG4sllgSxdnnrqqdaEculomMpA8ruhJtiB/AjM5We+P8vWkZiuhISIzWXourq65pT3soiIiIiILB5GRcSDEXFRWSBLlyeffPJZTz311Neeeuqpz2mda11dXd1Wlg2mNdtVWrs69Wdf7+rqOrS8l0VEREREZPGQl3W7viyQpUtVVSO7urpGV1W1nKY9TWz5qqqGl/eyiIiIiIgsHhDscyPimrJARESGBAyKjK2X4RQRERGRZYjsYb+5LBARkSHBlhHxUETsUxaIiIiISGeDx+aSiNi+LBARkSEBz2cGVg8pC0RERERERERk8JhVC/bZZYGIiIiIiIiIDB471IL9sLJARERERERERAaPjSPiGxGxS1kgIiIiIiIiIiIiIiIiS5lREfHliDizLBARERERERGRwSMv63ZjWSAiIiIiIiIigweCfW5EXFMWiIjIkIElOIeVH4qIiIhIZ4Ng74qI68sCEREZEqwdEe+LiC3LAhERERHpbJjD/uuIuLQsEBGRIYHLuomIiIgsw4ypPe0iIjL0mFUL9tllgYiIiIiIiIgMHnrYRURERERERIYgG0bE52rhLiIiIiIiIiJDBLLDjzRLvIiIiMiyB0sFsaTbLmWBiIiIiIiIiAweJJtjbuQNZYGIiIiIiIiIDB4I9kdrL7uIiIiIiIiIDBH0sIuIDG1WjYjn18nnRERERGQZYlRE/Dgi5pQFIiIyJNixHlg9oiwQERERkc5nRkSMLT8UEZEhwaxasM8uC0REREREBsI6ETG9/FBERBYaBbuIiIiILBbWjIgbI+JvEfHSslBERBaaHWrBflhZICIiIiKyIKwSETdHxF/qF8sHImL3spKIiCw0K0XE3hExpSwQERERkc5meEScEhGblwULyBq1UH+oFuqfiIhDImJYWVFEREREREREFpy8rBuie2HA03NLRPyx3v4zEbFvPQAgIiIiIiIiIosIgn1uRFxTFvTB2vWa7X+uhfpnI+LAiBhZVhQRERERERGRgbOggn3ViHhuI/T947VQ16MuIrJkGRMRO0XEhLJARERERDqbHBJPeHs78KhfHRH/qut9LiIOiohRZUUREVkibBMR/42IA8oCEREREels8JCfFRFbFZ+vFhHXR8SfaqF+X0QcWtQREZElz3b1c5iEniIiIiKyDLN6RDwnIn4bEf+MiPdFxPZlJRERWWpsXQv2g8sCEREREel8WIKN0PfnR8RPI+LJWqz/LCJeUIfLXxYRE4vtCM98RUS8uLaX1nPdm4yrM9Df2qizX1GH/TKHnjoviohXRcTRRR04qi6jDvu5LiImFXX2qcs4Fvuj7bShCW3MdbBX1mH+TZgremVEvKzRpv2LOnBuvT11ON5NETG2qLNrvR+Oxb8MiJTt3qxxbvl45Tr2K0bEMyLi5XUd+r5sN9fyqkYd/n1mUQd2aLSbNtGXM4s6O9d1aDf1+P8mRR0iNJgy0Ty/I4o6y0fEFY2+ZD9nF3Vgr0Yf0JfkTCjvpx0j4iW15Wu8clGHNauf17jn6KfjizorRMScRj9x3GOKOnBso03si+POKOoQrpzvJco59ipFHSJW8j2Xj3d4UYdpJufX7c391K5N1MnXjn3eWN8bTbhO+ZpQh/tynaIO91z+/uY2cc1LLmy0if46qVi2kf9f0Li+1OE+LSGKJ/cl/cTzZoOiDstL5vL83dyoqEOCS54XzeMRJVTWObNxfdlPWQdY2aJ5fam/flFnw7qtuU38u15Rh+dFrpP78vSiDv3EEpr52vHvGW3ygHCvNvuJ5ydCvSnY12qUYy+MiE2L/YiIiIhIh4BQ4KWeF0Lsroh4c0T8JSIerT/7ef2S2AQxn7fJtm1RZ3qd1K5Zp1xCbs2I+ENR57aiDrylqEMCvLJNiJdmHdpfClHaWLYbcdeESIMHizoIsRKy5DfrMM90WlEH8dKsQ78yQNIEYVa2CeHdZHJE/Liow8t6E17+f1nUYeClBIHVrEPW/y2KOpe2aVMpxhFGvy7qvKGog4Au2/3Jog4waNCs85829xMiu2xTOZ0Dsfx4Uec9RR0GTL5a1Hl7UQfe2eZ4CN0mpxXlHBuPaBOiVMr9vK6owyDCF4o67yjqQFmH/BLlANCRRR3uyz2LOu3uOQbmSr5S1PlAG8H+5aIO17vk5KIOA4PlnGwGSMo2lWHgo9s8Lz7Wps4DRR0SZZYwkFEerxyY4/i0tVkHod+E50VZ56NFHb6bdxd1mGpUrrDx3qJOVz3oxyBmHpzarU27GdAUERERkQ6Dl21eAhG1vOTzksuLJ6IDMcpLPV5NPF+8BDdBdO5dC4FspTebpHa8bOI9pZx/S5GNB5ZjULZH/TJcet6AzyijDvsiazLbNkH857awP45NG5rQxlyHfeGVL72PnCvzRpttKtsNW9bbUycfr0zIh3e1ef7t2j21sZ98PLZrwn5n1X1OHf4thT8gDnO7qcN5lHDNm+2mTWVkAN5t6jT7aUpRh/sHb30+Hv+WHsoRdbtzHfZTDg7AGo3rm/uyvJ8Q4837jXplu7l2CJpmH7Tz0iKqc19yXDypJXzWvOcwMnY3wePebBPHLtvEoEW+B/LxSi8tgo7Bh9wm+qldm6iTrx3726WN6OM65eNh9GWZYZx7Ln9/c5vKiAZo9hP/btxGsNOmZn9zvUsYvGv2JREk5UADbcrluQ8YqGpCPzWfFxyP51NZh8+afVnWAb7TzTaxz7JNHJ+2Nq9xGW3E9znXyccrB3YAL3i+drlOsy+Be7W85xjMaTK+KOf/9J2IiIiIdBiIwB/Vod3Ai+Hs2mOGdxpv7Xm14BARERERERGRpURe1u2G4nM8VIRgfr4u/109F7qdB05EREREREREFjMIduaYk8SpHYR6khyL9dcR7sy/JslYOS9cRESWDEzzYMpIGRovIiIiIh1O9rCTrG1+kL04J1nD445wLzN0i4jI4oXki+QVObAsEBEREZHOhoRgeNdJSrUgkNyKTM5N4c72JjwSEVkykDiS563rsIuIiIjIAoFwZ477F+sXyd9ExLMNlRcRWeyQdZ/nLAlBRUREREQWGELq8frktZp/FRHX18sOiYjIosMydjxfySciIiIiIrLQ5OR0X69fLH8fEaeUlUREZKFZLyLureeyi4iIiMgyBhmICXFfHOBxP6peDu45ZaGIiIiIiIiILBijIuKnEXFRWbCIsPwQAwEiIiIiIiIiMgDysm7MOxcRERERERGRIQKCfW69NJuIiIiIiIiIDBGyh/3GskBERIYEa0bEWyJis7JARERERDob5rB/IyLOLgtERGRI4LJuIiIiIiIiIkOQWbVgn10WiIiIiIiIiMjgsUMt2A8rC0RERERERERk8NgoIr4SETuVBSIiIiIiIiIyeIyIiEl1zhERERERWYbgRfDSiNi+LBARERERERGRwSMv63ZTWSAiIiIiIiIigweCfW5EXFMWiIiIiIiIiMjgkT3s15cFIiIyJFg7It4dEVuWBSIiIiLS2ZDE6MGImFMWiIjIkGDHemD1iLJARERERDqbYRGxQURMLgtERGRIMKsW7LPLAhEREREREREZPLarBfvBZYGIiIiIiIiIDB7Zw65gFxERERERERlCrBARm0TEuLJARERERDqbERFxZUTsVBaIiIiIiIiIyOCRl3W7uSwQERERERERkcEDwf5oRFxTFoiIiIiIiIjI4KFgFxEZ2iwfEetHxJiyQEREREQ6mxwS/9yyQEREhgTbRsTjEXFgWSAiIiL/396dQMlVlWsffzJdIEwBkgAXcpllSAAZAgpEZRFkCDN4gQ8vICAgkwyGLzZzGAQDCMjwKRKZp4BMyuAHBGQSIaAgk4ELASEyj2bus+969j3Vq/J2hXQn3ZW2+v9b66ykau86dbqqUunnvHvvAzS2npK2lbR6bAAAdAlchx0AAAAAgC6IwA4AAAAAQBc0lMAOAAAAYJ6llHqmlHqnlHp1s80/c4/4egAdaKCkIyWtFBsAAADQ+LwCce94J9AeRVH8oiiKe4uiuKebbf6ZvxtfDwAAAACYX30kTSyrN8A8K4rizdRNNTc3nxNfDwAAAACYX76sWyHp5NgAtEdRFC/EINtoZs6cmf+cMWPGbPc3NzdzWUREa5eLxQEAAADzzIF9qqSm2AC0R0cF9t///vdpvfXWS7/73e9i03wZPXp0+va3v52mTp0am+Zq2rRp6aCDDkrjxo3Lt0855ZR0+umnt7QT2BH0knRtuVDcVZLWjx3aqa+kDSQtHhsAAADQ2BzY/UslFXbMl44K7A7F/kxee+21sWm+HHzwwWnFFVdM//znP2PTXF1yySVpww03TJMnT863n3rqqbTyyiunBx98MN8msKOGjSVdLWlW+R17eRm654X31Sxp29gAAACAxubF5s6WtFVsANqjowL7b37zm7TIIoukG2+8MTbNlyOOOCKtscYa7Q7skyZNSquttlq67LLLZrv/0EMPTcOHD09FUXgjsGNOfEk2V9kd3GdK+n+SNoqd5oLrsAMAAACYd0VRPF8Js7fffnseNn7TTTfNFnIrXnzxxfSTn/wk93HfanMK7O+++24699xz89D2l19+eba2iltvvTXv88orr2yZb14xp8D+8MMPp1NPPTWddtpp6Yknnpitzc4///xcTf/www9nu/8vf/lLWnTRRdP48eMd2E+MrwcQDJF0nqTPJX0m6VJJX4+d5mDdMrAPjw0AAABofL6s26qSVmNjm9dt5syZEx2kt9pqq7T00kvnMLvEEkukbbbZJk2cODGH3ClTpqSjjz46rbrqqrnNwdz9dt999/TOO+/kPjGwNzc3pzFjxuTQ7L5uW3755fMccrfZhAkT0pZbbpn69evX8rwewu758BUxsL/xxhtpjz32SIMGDUqLLbZYWmihhfJxH3PMMS3z3L/44ot8rN///vdb9lPx2WefpQ022CAdcMAB6a233roovh5sbFXbKpKWL6+nvoekB8sA/lE5VH4dSYPK7+Fa2y5l/wNrtFW2lSUtFL/cAQAA8K9vWPnLIBvbPG19+vRJjz76aPrWt76VlltuuRyUHXrvu+++3Lb11lvnldUvuOCC3P/nP/95Du9ezM3VcN93wgkn5CB822235VBeqc7fcccduX3//fdPb775Zq50ez6677vrrrtyAPcidSussEJ+Pj/vk08+me8bOHBgeumll/J+KoF9+vTp+Vh222231LNnz3TvvfemWbNmpY8//jgde+yxeb/3339/fsyf//znfNuV/VqamprSOuusk0aNGtXqNWFjm8PmRT5nhPsmS3qrHDY/p839PI893l/Z3i+H3wMAAKDBrCFpd0nbs7HNy9a3b9/tr7/++kkOFddff/1sodZDzR22Xa12Vfy4447L93vu96effppeeeWVXOHed9998/0eIu/Afsstt+TbI0aMSKusskoO9xUO3Lvsskuuxjtc+3kd9Kt5vw7kJ598cr591FFH5cDux/pkwX777Zcuuuiilv35WO6+++68r8owff8sPhafGKjll7/8Zerfv7+H918fXxM2trB5OPvmkvaSdFtVWH+mrKD/YdiwYfkEUns3/1soh9lvGr/cAQAA8K+tj6Q/S9o7NgDtceaZZz63zDLLtFS0a3EwdvX9jDPOyEPY3X/ZZZfNweWwww7LfSqB3QHclW8Pf99zzz3jrlo4kA8YMCAPca/mUO5V4Xfeeed820Pxq4fEe0i757yPHDkybbzxxnk4vY+lR48e6be//W3u48q6j9Grwtdyww035PbRo0f/OL4eQNBT0s6SHpc0rfzz4PJKHXbb3nvvHT9ibXL88cf735CH13PddwAAgAbjXxY9zJLLumG+NDU1veBwXZmvXs3D1L0I3IUXXpjnmA8ePDhf1/zyyy9Pd955Z66wH3jggblvdWD3YxzGXQ2PPLTdVXeHFQ/D92ru1VzR97z3nXbaKd+uBHY/zsfjeekO55tttlmet37dddfl4fmuynsYvnnuvAP5008/Pdu+KzzP3hX2UaNGsUo85mQpSYdJmlhW1CdIOkBSv9DvLq+pMC9++MMfEtgBAAAalAP7FOet2AC0x9VXX/1C7969W65NXnHNNdekb3zjG+mhhx5Kiy++ePrOd76TK+0VrnT37du3VWB39duGDh2aNtlkk5b+FV7MzivCu8rdq1ev9Nhjj83W/v777+f9Hnnkkfl2ZUi8eZE6h6dzzjknD82v8LH7fp9EsKuuuiqfYLjnnnta+lT79a9/nQP92LFjCeyIlpF0iKRXy6D+nKTvlYt81kJgBwAAQCsO7P5lb3RsANpj4sSJL/h65R7qXrkE2uTJk3OVe6ONNsqXcvMCdA4llUuuud/3vve9HJK9kJxVAntl0blLL700t48dO7YlXLsa7vt+9atfpffeey8tueSS+Xn9d/Nw+EoF/YEHHsj3VRadMw9x9+PPPvvsfNu8wr1PDlTPYfdl3nzbi+TV4vn5nl8/adIkAjuqearRr6uC+qGS+sZOAYEdAAAArfSWdGe5EBIwz4qieMGrtHsI+0orrZSHonsOuS+LVrm+uVeC95DzIUOG5IWyPDTel4HzJdX8p3mxOQcdV7fNQ9u9aJ2r95tvvnkO5t6Hg35lIbpx48blFeG9Uryfd80118yV8erV3b0PD193df/zzz9Pu+66a36eLbbYIm233XZp7bXXzvPdfZ+vEW9eOd4V9EqVvpqH1ftYHLKKoiCwo1qPcr66g/oSsXEOCOwAAAAAOocDu8ODL4XmirTD8sUXX5xef/31lmDh+eMe6n7eeefl+eFehd2B3EG/siq8F4/z6uvVc+G9+JzbvU9vnjteqdJXPPfcc/n53O658n/4wx9ma3/kkUdyZb4yHN/VfZ8UcH8fj1eI9/HdfPPNefh+hU8y+NJtDvnVfHweCeCV6gns6AAEdgAAAACdoxLYG83zzz+fq+yVOfUVo0ePTuuvv35edZ7Ajg5AYAcAAADQORo1sNuPfvSjPPy9ckk4r0jvuetXXHFFvt3c3Exgx/wisAMAAADoHEVRzPkC7P/ivOL8brvtlsaPH59vO6h7TnxFc3MzizZifhHYAQAA0EovSaMkbREbgPYoiqL1BdgbTHNzc/4zzp9vbm4+M74eQDsR2AEAANBK5bJuZ8QGoD2KohhSFMXQbrqtEF8PoJ0I7AAAAGjFgX2KpKbYAACom44I7BvGnQIAAOBfmwP7LEknxQYAQN10RGDfXFIfSQuxNfS2sKSe8QMEAAAak3+5e0vSMbEBAFA38xvYZ0h6UtI9kn7P1rDbfZLuljQ4foAAAEBj6iFpXUnLxgYAQN3Mb2BvlvShpH+wNfT2cbnuzJbxAwQAAAAA6BzzG9gd5L4haVG2ht42JrADAAAAQH3Nb2Bn0bnuYU0COwAAAADUV0cEdi7r1vg8d53ADgBAN9JL0hGShsYGAEDdENjRFgR2AAC6GS7rBgALHoEdbUFgBwCgm3Fgny7phNgAAKgbAjvagsAOAEA348A+jcAOAAsUgR1tQWAHAKCbcWCfyZB4AFigCOxoCwI7AADdTA9JX5W0XGwAANQNgR1tQWAHAAAAgDojsKMtCOwAAAAAUGcEdrQFgR0AAAAA6ozAjrYgsAMA0M14Drvnry8WGwAAdUNgR1sQ2AEA6Ga8SvwHkkbGBgBA3RDY0RYEdgAAuhku6wYACx6BHW1BYAcAoJtxYJ8qqSk2AADqhsCOtiCwAwDQzTiw+z//U2IDAKBuCOxoCwI7AADdTG9Jl0kaERsAAHVDYEdbENgBAAAAoM4I7GgLAjsAAAAA1BmBHW1BYAcAAACAOiOwoy0I7AAAdDM9JPWX1Dc2AADqhsCOtli9DOybxQYAANCY+kh6TNIBsQEAUDcE9gZRFMUSRVEMSSmt1ZFbURRrnHXWWTustdZa6fDDD9+vKIrVY596bEVRDC6KYtn4cwMAgM7BZd0AYMEjsDeIlNIuRVG8UxTF3zt4e3P69Onv/v3vf09Tp059vyiKSTX61GN7J6V0avy5AQBA53BgnyKpKTYAAOqGwN4giqL4bnyPGk1RFBfHnxsAAHSOSoX99NgAAKgbAnuDKIpi7/gezclHH32UJk+eHO/+Up999llylX3mzJmxqW6KovhZ/LkBAEDn6C3pMkkjYgMAoG4I7A2iPYH9yCOPTBtuuGGaNWtWbJqjCy64IPXv3z+99tprsaluCOwAAAAAuhMCe4NoT2A/+OCDkxeRa09gHzNmTFpkkUXSxIkTY1PdENgBAAAAdCcE9gbRnsD+gx/8IA0ZMqRdgf28885Liy++eHrjjTdiU90Q2AEAAAB0JwT2BlEd2D/44IN05plnpu222y4deOCB6ZlnnpntvasV2P/xj3/kx2y77bZp++23T1dddVWaPn16S7sDe79+/dILL7yQLrzwwrzv008/PX344YctfSo81/3EE0/M+zr00EPTiy++OFu7933aaaelhx9+OO2yyy7ppJNOankuP/bUU0/Njx0xYkS67rrr0owZM3IbgR0AAABAd0JgbxCVwP7II4+klVdeOa222mppk002Seuuu25acskl07nnntvy3lUCe3Nzc7599913pxVWWCGts846adNNN82PWWKJJdJOO+2UF5szh/RFF100bbHFFmn99dfP+1522WVzX4f4iptuuilX4n0M3tcaa6yR+vbtmy666KKWPocddli+z4/1XHqH9qlTp6bbb789Lb300i3HMXjw4LyvPffcMz+OwA4AQP140blLJG0fGwAAdUNgbxAO7K5Sr7rqqmn48OHp448/bnmvzjnnnDz/fPz48fl2JbCbH7Pmmmum9dZbb7Zq+ejRo/3+5jBvl1xySb7tyvp7772X73Pl3qHdlXCH/9dffz0Hbof6ytB573PfffdNffr0aXn+kSNH5n1deuml+bYr6O63/PLLp2HDhs127K7E/9u//Vt66623COwAANRR5bJuZ8QGAEDdENgbhAP7U089lYNwU1NTeuKJJ9IDDzyQK+533nlnrmi7sm3+04G9KIoc2M8+++z03HPP5Tb/6WB93HHHpd69e+eKuZ1//vlpscUWazW8/eSTT879Pv/883T55ZenHj16pPvuu2+2PpMmTcqP3WefffJt79v93nzzzZY+77//fg7nleH7zz77bD6OY489Nj/2+eefJ7ADAFBHDuxTJDXFBgBA3RDYG4QDu8O1g3B5QrzV9t3vfje/d0ccccRsc9gdqH/84x+nbbbZJg+fd19Xzh3yb7nlltzHQ+pXWmmlNG3atNk+BzfccEPu/84776RTTjklV8nffvvt2fr4pICH6O+www75tgO7Q7jnzVd79dVX06hRo9LWW2+d273f5ZZbLl9OzicKCOwAANSPA/t0SSfGBgBA3RDYG4QD+4033pgWXnjhvKib55VXtpdffjm9++676aOPPsrvXfWQeC9Q5znpHsp+/PHH54Du/mPHjs2BvVJhd2AfNGhQnmte7eqrr84nCVwh9yJ0AwYMaLWS/JQpU/Kc9h133DHfdmD3AnaVofX2yiuv5PnuPlHgkwe33XZbvu/KK69MSy21VPrrX/9KYAcAoI4c2D+XNCo2AADqhsDeIBzYHc5dlb7gggvi25WuuOKK9Mc//jH/3YHdC76ZF3rzY+64447Z+v/0pz/N999666359s9+9rN8MuDxxx+frZ9XoffCcK68+4SBH+MQX23ChAl52Lyf14455phcyfdJhIrLLrssP3bcuHFVj/zf+fe9evVKL730EoEdAIA66iFpiKSBsQEAUDcE9gbhwO456ZtttlkOuK6Ue8i554n70moOwx6+br5dqbA/+uijuc1Vbw9r9+bA7Qq4K+cO4XbxxRfnfl5QzvPJJ0+enOes+z4PY/dzu1q/9tpr5yHsDz30UA7krowPHTo0LbPMMrlyb0cffXRehb46sN988815X16Qzvv2sPprrrkmnwzwz/PYY48R2AEAAAB0KwT2BlG5rJvngXsuuleFX2WVVdLAgQPzMPWzzjqrZc66q+KeU+6QPXPmzHTUUUflUOxLu/n+DTbYIK8S79DuYe42ZsyYXBXff//9cz/PZ/eQ+UMOOSR9+umnLZ8LLxr3zW9+M18CzvvycHYPub/nnnta+hx++OF51fjqOey+fNxBBx2UTxKsuOKK+bEO+j6R4NDu5yewAwAAAOhOCOwNohLYzYu8Pfnkk+nee+9N999/f54LXm3ixInp6aefzoHdHOS9wrxXd3d/V9ntT3/6U/rb3/6W/+7LqjmM+xJsHlrvvpUV3aMvvvgiV+79/K60V89Vt9deey1XzL2vaj554Of0vh988MFcaTeveO/qPIEdAAAAQHdCYG8Q1YG9URHYAQCon56S9pf01dgAAKgbAnuDILADAICO5FXip0k6ITYAAOqGwN4giqLYJ75HjaYoip/HnxsAAHSOynXYCewAsOAQ2BtEURR+Iz/pjG3WrFmfffLJJ55z/kVsq+dWFMVZ8ecGAACdw4F9hqQTYwMAoG4I7A2iKIqFiqJYpjO23XbbbXNflm3YsGE7x7Y6b4vGnxsAAHQOB/ZPJP3f2AAAqBsCO9piDV8jXdIWsQEAADSmHpLWkTQgNgAA6obAjrYYXAb2LWMDAAAAAKBzENjRFgR2AAAAAKgzAjvagsAOAAAAAHVGYEdbENgBAOhmPId9XUkDYwMAoG4I7GgLAjsAAN0Ml3UDgAWPwI62ILADANDNOLBPk3RCbAAA1A2BHW1BYAcAoJtxYJ8iqSk2AADqhsCOtiCwAwDQzTiw+z//02MDAKBuCOxoCwI7AADdTG9Jv5C0Q2wAANQNgR1tQWAHAAAAgDojsKMtCOwAAAAAUGcEdrQFgR0AAAAA6qzegX19ScPinejyCOwAAHRDi5eLzwEAFox6BfaVJZ0t6UNJp8VGdHlfIbADANC99JH0/yX9V2wAANRNZwf2pSSNkvRKGfi8nRo7oa56SOpZLv7qk+YLSVpEUl9Ji5Un05cs37tlyr97VITfu2/FnQEAgMZUuawbv7gBwILTWYF9CUn7S/prVVCvbFzO83/1KsOyg7LD8UBJ/y7pPyStVla11yqHo69bTifYQNLG5Wv+dUmbl2HaQXobSf8p6SBJR0n6saQzJf1c0pWSbpN0n6RHJf1F0muSXpc0SdJbkt6R9A9J75fv66eSPi+3WeV7t1X8IQAAQGNyYJ8iqSk2AADqpiMC+6ZV+3P1djdJD9cI6pXNIbKrccXZ4XlRSf0lLSdpUDmU38HZgXnD8md1SPbQ8O0l7Spp7/LkxCGSjpT0I0knSzpL0nmSLpb0S0lXS7pJ0u2S7pF0v6RHJD1eBuiXJf13GZ5jaPb/l9MkzZDUXOM1rd4crt3Xj/M+3pP0tqRXy+d4XtKzkv5Yvk+/l/Q7Sb8pj8/H6eN10D+/nMrgaQzHSVoxvnAAAKAxVSrso2MDAKBuOiKwuwpsW0u6swyVMURWb2dUPb+rzAuXFfmlJS1fhuRVJa0jaSNJQ8tq8maSvllWef1crig7NO9UBuc9ygrz/ynDs6vMJ5ah+RJJYyXdKOnussrs0Oqh+g6zriw72H5QFZL/KWlq+fMUNX6OyjazDMju78d9UgZu79P7dgB/Q9LEqsD8jKSnJD0h6TFJ48vg7CD/2zLUXy/pF+Xx+zU7QdLRkg6TtI+kHSQNL08guPru12tNSauXr59fR1frHbJduXcF3ycj/Dr3K4e+u7rvExUeHu+TFgAAAJl/OfAvIv6FAwCwYMxvYHfAdTB2qIxBdk6bq8mu3l5bVnYdVp8sA7SrwO+Wi9PNLfjPbXPI/qIMzg7N3veLZVB2ZdvV5bskjSuD/HWSrpH0a0m/Kv+PuqyskF9Q/oxjyoqzh/WPLAO012LxCQOfQPAJBQ9Z95B2V+k9J5wgDAAAAABot/kN7B6q7XAdw/KXba5ge/6057dPkPRQWVl2df4GSVeUYdnDsT0U+yRJx5dDsl1dPqAMya6k716e+N22rLx/razIf7Ucxu6KsyvNHt7u6v2AchE1V5Zd2fcQfgAAAAAAupz5DeyusHuRM1ebPf86hvNam6vrAAAAAADgS8xvYPcc9iHlvlaRdHg5TzuG9Ort0nAMAAAAAAAg6IjAHi/r5gXNDpT0hxph3dvloT8AAAC6GC8650vIeEVfAMCC0RmBvcKrkG8n6d5yrnslsHu1dgAAAHRhXNYNABa8zgzsFb5027ck3VZe+swnawEAANCFObC74tIUGwAAdVOPwF7NK7n7eukAAADowhzYZ0o6MTYAAOqm3oEdAAAA/wIc2D8ur60LAFgwCOwAAABopYekFSUtERsAAHVDYAcAAAAAoAsisAMAAAAA0AUR2AEAAAAA6III7AAAAGilp6RdJK0ZGwAAdUNgBwAAQCuVy7qdFBsAAHVDYAcAAEArDuzTJJ0QGwAAdUNgBwAAQCudVWH3ZeL6xzsBADUR2AEAANCKA/sHkkbGhnnUT9IxkiZStQeANiOwAwAAoJUekjaXNCg2tNNAST8sg7p/eXxW0o6xEwCgJgI7AAAAOtzSko6W9HoZ1J+S9J+SFosdAQBzRGAHAABAh1lO0iGS3iyD+jOS9pG0UOwIAJgrAjsAAADmW6Wi/loZ1J+Q9F+SFo4dAQBtRmAHAABAKz0lfVvSarEhqMxR/+8yqP+prKgvEjsCANqNwA4AAIBWvEq8f9k7LTaUfHm24yS9VPZ7UtK+kvrEjgCAeUZgBwAAQCsO7FNrXIJt2XLo+6tlUJ8gaW8WkwOATkFgBwAAQCuVwO4qui0p6UeSniuD+v2SdgiPAQB0rLv22muvmMXbZOTIkQR2AACABlUZEn+xpL3Koe+fSnpX0tmStpS0uqS1yr7VVpC0cdgWDX08dH6D0OffQx+vLL9e6LNy6GMrhT7r11iV3vuu7rNhjeH7PsZ43CuGPv5Zh4Q+/nmjNUMf/6y9Qx+PVpjbcS9V45i8En8173fwXI7b1g19/HNEA2ocU9/Qx+sWxGPqF/r0qPF8/xH69Kpx3F8JfWz50MevZVuOKfbx++33vbrPKqGPX0t/pqv71PrM+XHx+eK6DcuEdj93PKZan7n4Onk9ifh5qnVMsc9Xa3zm/D5V9/FruXjoU+sz589qFF+nVWOHGn38fkdesLK6z0bllJtqtY7JJxGr+TMXvy/WqNHH931ZH4vfF97iMfn5faxf1sffF7GPvzcjrxUSj8nHar8dPnx4mjBhQru3vffe29/hnxDYAQAAGo/D1PGSHiiDu7dbJV0uaVrVfW/X+EX9vKr2yrZp6OPQGfucE/p4v64OVfe5NvSxq0Ofz2oslndGjedzEKzmY4x9Lgp9HJQql6yrbGNCH/tj6FPUCD2jQp/Pa/wy75Ml8ZjiNIX+kt4IfS4MfRz63gl93gp97Mgax+RQV80jLeIx7RH6OCj65E51n7GhjwPP66HPI6GPeR2F6j7NNQKIFz6Mx+SAXM0nMWKfcaGPQ/afQ5/rQx+7sca+fHKj2oE1+gwNfTar0cf/xqr5RMBToc8NoY/FPjPKn6fad2o831ahT63P3MjQx54Nfe6sCpnmv/uyjtV9/DmN9q/xfCNCH0+7iX12CX18suvD0OehGn3Ghz4Phz52Vo3n2z708fPHPtuGPv6+iH08Oqma/23eHfr4e9ffwXZvjX20Z/unpK+F5wQAAECD8C/8/oXal2n7ogxwDhTbldXQdWpU2AeV4bd6q1Vhd3ip7hOrwv7l2mGxuk88OWCudlb3cVCLlWpXwav7+LlrVdjjccdqp/frYFbdxz9vtHYbns8nDOZ23K4+xmOKJxocjl1Z/LLjNldcq/vEgGk+qRCPKVaFfbIlHpMroNUc1uLzxWq2A0k8bldko/jeuQIZP0/xuL3F4/bn1EG/uk88sVMZrVDdp9Znzo+b2/P5REp1u587HrfXfoj7idVzBzr/O6vuE4/bYh+/TrHCHj9P/lzGqnDs4y2O6rD4OtWqVMc+fr+jWq9TrJ7XOqb4mfPrFL8v4ufJfXzfl/UxfxfF54vH5OePn6fYx/+eYx+PhIj8XRr7VE5++HX1+zSvm/8Nx88dAAAAGox/8f+BpMfLqo0D/J5VVSAAAAAAALAAuYJ0UNWwYc9tP7RGZQkAAAAAACwAHv57cFVwf17S4VzeDQAAAACAzuX51l7saJ/YELiyvl9Zaa9U3D10njmTANC5PP/ei+ixqBwAAEA3U7msm1fobgtX1g+Q9EL5uL9KOqTGwlAAgI7hoO7v251jAwAAABqbA/sUSU2xYS58ned9JT1X/iL5SjnHPV7rGQAwf7wKvL9n42XwAAAA0OAqFfZTY0MbeUi8F6erVNxfLYN8vC40AGDeUGEHAADopnwZt2sk7Rob2slD5b043TNVc9x3j50AAO22mqRbyuvPAwAAoJvxNdZ7xDvnkYO7K+4vt2NePABgzvz97JOrHfU9DQAAgG5uYUn9450AAAAAAAAAAAAAAAAAAAAAAHScPpIeLFd2BwB0PWtLmiBps9gAAACAxja/l3UDAHQuLusGAADQTTmwT5HUFBsAAF3C0DKwj4gNAAAAaGwO7IWkk2MDAKBL2LQM7DvGBgAAADQ2z2F/TdJRsQEA0CV8VdLbkraKDQAAAGh8i5TBHQDQ9fSU1FdSr9gAAAAAAAAAAAAAAAAAAAAAAAAAAADQBXlu5HBJq8YGAECXsKSkbSQNiA0AAABobL6smy8XdFpsAAB0CV8rv6d3jg0AAABobA7sUyU1xQYAQJcwtAzsI2IDAAAAGpsD+0xJJ8UGAECXsEkZ2HeMDQAAAGhsDuwfSzo+NgAAuoSNJU2XtF1sAAAAQGPzonPbSlo9NgAAuoR+5fz1gbEBAAAAAAAAAAAAAAAAAAAAAAAAAACgC/Icdq88/JXYAADoEpaS9B1Jy8YGAAAANDavEj9N0gmxAQDQJVQu67ZDbAAAAEBjc2D35YJOjA0AgC6BwA4AANBNObBPkdQUGwAAXcLQMrCPiA0AAABobA7s/kXw9NgAAOgSvl5+T+8aGwAAANDYvOjcfpLWjw0AgC5hgKQDJQ2KDQAAAAAAAAAAAAAAAAAAAAAAAAAAAAAAAAAAAG3RR9IT5YJGAICuZ7CkZyUNiw0AAABobJXLup0aGwAAXcLXyu/pnWMDAAAAGpsD+xRJTbEBANAlDC0D+4jYAAAAgMZWqbCfEhsAAF3CpuX39E6xAQAAAI3Nc9jvkLRXbAAAdAlfkfSgpE1iAwAAABpfT0k94p0AgC6jF9/TAAAAAAAA6DT/Aweo4DxfVdwbAAAAAElFTkSuQmCC;" vertex="1" parent="1">
          <mxGeometry x="-740" y="70" width="1004" height="681" as="geometry" />
        </mxCell>
      </root>
    </mxGraphModel>
  </diagram>
</mxfile>
